<?xml version="1.0" encoding="UTF-8" standalone="no"?>
<svg
   xmlns:dc="http://purl.org/dc/elements/1.1/"
   xmlns:cc="http://creativecommons.org/ns#"
   xmlns:rdf="http://www.w3.org/1999/02/22-rdf-syntax-ns#"
   xmlns:svg="http://www.w3.org/2000/svg"
   xmlns="http://www.w3.org/2000/svg"
   xmlns:sodipodi="http://sodipodi.sourceforge.net/DTD/sodipodi-0.dtd"
   xmlns:inkscape="http://www.inkscape.org/namespaces/inkscape"
   version="1.1"
   id="Layer_1"
   x="0px"
   y="0px"
   viewBox="0 0 1111 1350.0001"
   enable-background="new 0 0 1920 1336"
   xml:space="preserve"
   inkscape:version="0.91 r13725"
   sodipodi:docname="FerrisWheel-isolated-colour.svg"
   width="1111"
   height="1350"><metadata
     id="metadata18364"><rdf:RDF><cc:Work
         rdf:about=""><dc:format>image/svg+xml</dc:format><dc:type
           rdf:resource="http://purl.org/dc/dcmitype/StillImage" /><dc:title></dc:title><dc:creator><cc:Agent><dc:title>j4p4n</dc:title></cc:Agent></dc:creator><cc:license
           rdf:resource="http://creativecommons.org/publicdomain/zero/1.0/" /></cc:Work><cc:License
         rdf:about="http://creativecommons.org/publicdomain/zero/1.0/"><cc:permits
           rdf:resource="http://creativecommons.org/ns#Reproduction" /><cc:permits
           rdf:resource="http://creativecommons.org/ns#Distribution" /><cc:permits
           rdf:resource="http://creativecommons.org/ns#DerivativeWorks" /></cc:License></rdf:RDF></metadata><defs
     id="defs18362" /><sodipodi:namedview
     pagecolor="#ffffff"
     bordercolor="#666666"
     borderopacity="1"
     objecttolerance="10"
     gridtolerance="10"
     guidetolerance="10"
     inkscape:pageopacity="0"
     inkscape:pageshadow="2"
     inkscape:window-width="1916"
     inkscape:window-height="1035"
     id="namedview18360"
     showgrid="false"
     inkscape:zoom="0.655"
     inkscape:cx="150.04325"
     inkscape:cy="588.13453"
     inkscape:window-x="4"
     inkscape:window-y="1"
     inkscape:window-maximized="1"
     inkscape:current-layer="g19084"
     fit-margin-top="0"
     fit-margin-left="0"
     fit-margin-right="0"
     fit-margin-bottom="0"
     showguides="true"
     inkscape:guide-bbox="true" /><g
     id="g17958"
     transform="translate(-61.290003,165.91993)"><g
       id="g19248"
       transform="translate(44.439863,-69.83407)"><g
         transform="matrix(2.1048967,0,0,1.9707364,-67.719116,-42.177718)"
         id="g19084"><g
           id="g20785"><path
             style="fill:#acacac;fill-opacity:1"
             id="path18150"
             d="m 268.75,356.09 c 3.56,-5.75 7.23,-11.43 10.78,-17.19 1.03,3.18 2.52,6.23 4.59,8.87 -4.91,3.14 -9.87,6.3 -15.37,8.32 z"
             inkscape:connector-curvature="0" /><path
             sodipodi:nodetypes="cccccccccccccc"
             inkscape:connector-curvature="0"
             style="fill:#acacac;fill-opacity:1"
             id="path18164"
             d="m 287.66,351.22 c 2.25,1.81 4.75,3.31 7.41,4.45 -14.16,25.28 -29.02,50.16 -43.28,75.38 -14.72,25.16 -29.23,50.44 -43.76,75.71 19.26,10.33 40.11,18.09 61.76,21.41 -0.17,7.16 3.46937,15.35515 3.04937,22.50515 L 268.73,550.23 l -0.56,0.37 c -0.04,1.61 0.02,3.22 0.07,4.84 -36.02,-5.59 -70.54,-20.34 -99.69,-42.19 4.81,-7.62 10.51546,-15.43975 15.37546,-23.02975 5.73,4.17 10.63454,8.59975 16.84454,12.04975 13.2,-22.8 26.34,-45.64 39.49,-68.47 15.81,-27.51 32.02,-54.83 47.4,-82.58 z" /><path
             sodipodi:nodetypes="ccccccccccccccccccccccccccccc"
             inkscape:connector-curvature="0"
             style="fill:#acacac;fill-opacity:1"
             id="path17994"
             d="m 173.75,145.73 c 28.1,-19.69 62.22356,-33.4 96.24356,-38.32 0.02,4.21 2.63563,9.79687 2.98563,13.99687 -0.85,4.71 -3.77919,8.12313 -3.74919,12.85313 -21.26,4.32 -42.16,11.16 -61.11,21.84 16.36,28.52 32.82,56.99 49.28,85.45 3.05,5.22 5.95,10.51 9.15,15.63 7.52,13.59 15.49,26.91 23.2,40.39 -2.59,1.19 -5.07,2.61 -7.37,4.28 -9.8,-16.98 -19.7,-33.89 -29.33,-50.96 -1.06,-1.95 -2.25,-3.82 -3.41,-5.7 -16.37,-28.3 -32.61,-56.68 -49.07,-84.93 -16.12,10.19 -31.23,22.12 -43.97,36.36 -7.3,7.82 -13.67,16.43 -19.73,25.23 -1.48,2.05 -1.54,4.74 -1.1,7.14 2.13,1.78 4.66,2.93 7.07,4.27 44.05,25.27 87.93,50.82 131.94,76.16 -1.61,2.28 -3.04,4.69 -4.54,7.06 -14.69,-8.12 -29.07,-16.76 -43.61,-25.12 -26.93,-15.37 -53.75,-30.95 -80.6,-46.46 -3.22,-1.75 -6.36,-3.65 -9.4,-5.7 0.14,-2.03 0.26,-4.06 0.29,-6.09 -0.43,0.05 -1.28,0.14 -1.71,0.19 -0.14,-8.59 0.12,-17.19 -0.07,-25.78 1.5,-0.04 3.01,-0.06 4.52,-0.14 l 0.31,-0.7 c -1.14,-3.34 -2.55,-6.58 -3.73,-9.9 -3.65,-1.45 -7.29,-2.92 -10.8,-4.7 13.18,-18.16 30.2,-33.24 48.31,-46.35 z" /><path
             sodipodi:nodetypes="cccccccccccccccc"
             style="fill:#acacac;fill-opacity:1"
             id="path18108"
             d="m 86.04,269.74 c 1.3,0.55 3.239875,-5.73435 4.559875,-5.22435 1.77,0.72 4.189874,-1.67546 5.34,2.07 3.09,1.5 6.549995,2.78 9.719995,0.67 1.39,-0.57 2.76,-1.19 4.15,-1.77 1.31,-0.51 1.96013,5.79435 3.25013,5.25435 -0.74,5.87 -2.78,11.45 -4.02,17.22 -2.65,12.88 -4.58,25.99 -4.46,39.17 52.92,0.09 105.84,-0.28 158.75,0.2 -1.85,2.87 -3.68,5.76 -5.51,8.64 -2.62,-0.18 -5.24,-0.34 -7.86,-0.37 -48.45,0.12 -96.9,-0.1 -145.34,0.1 -0.4,12.52 1.71,24.95 4.01,37.22 -0.47624,48.936 -2.48036,10.24571 -21.46,23.61 -8.8,-26.15 -10.71,-54.18 -9.24,-81.58 1.22,-15.27 3.48,-30.57 8.11,-45.21 z"
             inkscape:connector-curvature="0" /><path
             sodipodi:nodetypes="ccccccc"
             style="fill:#acacac;fill-opacity:1"
             id="path18248"
             d="m 440.96,477.23 c 14.26729,-13.55587 22.38451,-24.40061 31.63,-37.01 -0.06,0.75 -0.18,2.24 -0.24,2.99 -1,1.57 4.74881,2.36485 4.94881,4.20485 0.45,6.4 -5.22881,13.84515 -4.75881,20.25515 -8.64,6.15 -18.02,11.17 -27.06,16.69 -1.51,-2.38 -3.01,-4.75 -4.52,-7.13 z"
             inkscape:connector-curvature="0" /><path
             sodipodi:nodetypes="cccccccccccccc"
             inkscape:connector-curvature="0"
             d="m 321.43192,346.39106 c -2.25,1.81 -4.75,3.31 -7.41,4.45 14.16,25.28 29.02,50.16 43.28,75.38 14.72,25.16 29.23,50.44 43.76,75.71 -19.26,10.33 -40.11,18.09 -61.76,21.41 0.17,7.16 -0.27,14.33 0.15,21.48 l 0.91,0.58 0.56,0.37 c 0.04,1.61 -0.02,3.22 -0.07,4.84 53.52492,2.25703 143.57777,-58.97155 166.69159,-91.08305 -4.81,-7.62 -40.46451,7.12386 -45.32451,-0.46614 -5.73,4.17 -47.68708,34.92919 -53.89708,38.37919 -13.2,-22.8 -26.34,-45.64 -39.49,-68.47 -15.81,-27.51 -32.02,-54.83 -47.4,-82.58 z"
             id="path18925"
             style="fill:#acacac;fill-opacity:1" /><path
             sodipodi:nodetypes="cccccccccccccc"
             inkscape:connector-curvature="0"
             d="m 299.59719,354.53233 c 2.84311,0.50523 5.7564,0.61845 8.63687,0.33907 -0.26101,28.9744 -1.32815,57.93464 -1.7057,86.9045 -0.80977,29.13844 -1.37765,58.28113 -1.96791,87.42466 21.85441,-0.20276 43.86731,-3.42345 64.44687,-10.92187 3.29353,6.35981 7.12672,12.4351 10.19624,18.90633 l -0.51905,0.9461 -0.31312,0.59367 c 0.73902,1.43093 -5.67769,0.3993 -4.85494,1.79572 -34.27098,12.41725 -64.38752,18.49603 -100.45264,13.35294 0.55378,-8.99409 -6.06884,-17.38712 -5.4568,-26.37895 7.0292,0.90134 21.32498,1.22054 28.42885,1.25977 0.61167,-26.33828 1.15152,-52.68281 1.70493,-79.02337 0.63558,-31.72306 1.7132,-63.47185 1.8564,-95.19857 z"
             id="path18927"
             style="fill:#acacac;fill-opacity:1" /><path
             id="path17974"
             d="m 302.86,44.03 c 1.4,-0.88 2.65,-0.76 3.75,0.36 0.6,1.33 -0.38,2.6 -0.74,3.84 2.17,0.11 4.35,0.28 6.52,0.55 0.35,1.22 0.76,2.41 1.23,3.58 2.76,1.91 6.33,0.69 9.42,0.7 -2.52,2.55 -5.65,4.4 -9.24,4.86 -1.5,-2.91 -4.6,-3 -7.46,-2.63 0.36,2.56 -0.32,5.68 1.78,7.65 8.66,9.24 19.76,15.94 31.62,20.25 1.39,3.62 2.83,7.23 4.01,10.94 -1.61,0 -3.21,0 -4.82,0 0.04,4.29 0.04,8.58 0.06,12.87 0,4.02 -0.01,8.04 -0.04,12.06 0.4,0.39 1.21,1.18 1.61,1.58 -0.53,6.19 -1.12,12.37 -1.49,18.57 -0.26,3.02 -0.43,6.05 -0.64,9.08 -6.78,2.73 -13.56,5.46 -20.32,8.24 l -2.53,0.03 c 5.09,-4.16 11.68,-5.86 16.85,-9.85 0.89,-8.67 0.67,-17.42 1.32,-26.11 -2.23,-0.04 -4.46,-0.09 -6.68,-0.15 -0.42,8.74 -0.18,17.56 -1.16,26.25 -5.27,5.11 -13.1,7.36 -17.17,13.71 l -0.24,0.09 c -2.72,1.45 -5.73,1.4 -8.39,-0.14 -3.95,-1.64 -7.94,-3.19 -11.91,-4.77 -5.97,-2.42 -11.9,-4.94 -17.95,-7.14 -0.46,-4.72 -0.74,-9.45 -1.02,-14.19 -0.03,-4.73 -1.26,-9.51 -0.41,-14.22 1.56,-8.63 0.56,-17.53 0.99,-26.27 -1.61,0.15 -3.2,0.3 -4.8,0.45 1.64,-3.71 3.62,-7.25 5.32,-10.93 9.39,-4.05 18.4,-9.1 26.23,-15.72 2.25,-2.02 5,-3.75 6.47,-6.46 0.64,-4.23 0.45,-8.54 0.5,-12.81 -0.36,-1.39 -1.24,-2.81 -0.67,-4.27 m -10.79,38.99 c -2.73,3.04 -1.67,7.36 -2.67,11.01 -1.39,-0.89 -2.68,-1.91 -3.96,-2.95 -1.71,1.46 -3.47,3.33 -5.95,3.09 0.47,-3 0.65,-6.09 1.65,-8.98 5.51,-5.43 12.03,-10.02 16.46,-16.48 -7.54,5.46 -15.06,10.98 -23.17,15.6 -1.04,2.87 -1.98,5.77 -2.79,8.71 -0.58,5.29 -0.15,10.62 -0.22,15.92 0.16,6.32 -0.77,12.67 0.26,18.95 1.05,6.34 0.93,12.84 2.18,19.14 6.76,3.73 13.9,6.98 21.17,9.64 -4.17,-4.23 -9.84,-6.46 -14.48,-10.09 -1.43,-8.44 -0.85,-17.16 -1.79,-25.69 3.48,0.27 6.98,0.07 10.46,0.02 0.05,7.72 0.12,15.44 0.18,23.16 -0.16,2.54 2.2,4.1 3.68,5.82 3.52,3.33 6.45,7.25 10.17,10.38 -1.48,-5.35 -4.84,-9.97 -6.25,-15.31 -0.75,-8.46 0.25,-17.01 -0.91,-25.44 4.34,0.09 8.68,0.1 13.02,0 -0.88,8.82 -0.42,17.71 -1.23,26.53 -0.73,4.84 -2.52,9.45 -3.1,14.32 3.85,-4.65 7.8,-9.34 10.82,-14.57 1.02,-8.69 1.12,-17.52 1.34,-26.28 6.66,0.15 13.33,0.06 19.99,0.13 0.07,-8.75 0.05,-17.51 0.04,-26.27 -1.08,-0.76 -2.14,-1.55 -3.19,-2.34 0.78,-2.27 -0.23,-4.67 -0.57,-6.95 -7.76,-4.67 -14.76,-10.42 -22,-15.81 3.86,6.66 10.15,11.45 15.75,16.59 0.12,3.01 1.52,6.23 0.26,9.14 -1.13,-0.93 -2.17,-1.92 -3.21,-2.93 -1.88,1.53 -4.39,3.96 -6.9,2.16 0.87,-3.78 -0.51,-7.63 -2.36,-10.9 -3.29,-5.99 -6.04,-12.26 -8.55,-18.62 -0.67,7.44 1.64,14.81 2.52,22.17 0.46,2.61 -0.04,5.77 2.3,7.62 -2.35,0.66 -4.19,-1.06 -5.88,-2.39 -2.32,2.35 -5.92,3.89 -8.61,1.17 1.5,-9.83 6.43,-18.81 7.37,-28.76 -3.89,6.53 -7.14,13.46 -11.83,19.49 z"
             inkscape:connector-curvature="0"
             style="fill:#336667" /><path
             id="path17978"
             d="m 292.07,83.02 c 4.69,-6.03 7.94,-12.96 11.83,-19.49 -0.94,9.95 -5.87,18.93 -7.37,28.76 -0.3,-0.16 -0.88,-0.49 -1.18,-0.66 -1.88,1.04 -3.77,2.17 -5.95,2.4 1,-3.65 -0.06,-7.97 2.67,-11.01 z"
             inkscape:connector-curvature="0"
             style="fill:#66999a" /><path
             id="path17980"
             d="m 308.72,85.89 c -0.88,-7.36 -3.19,-14.73 -2.52,-22.17 2.51,6.36 5.26,12.63 8.55,18.62 1.85,3.27 3.23,7.12 2.36,10.9 -0.96,-0.61 -1.88,-1.25 -2.81,-1.89 -1.09,0.73 -2.17,1.47 -3.28,2.16 -2.34,-1.85 -1.84,-5.01 -2.3,-7.62 z"
             inkscape:connector-curvature="0"
             style="fill:#67999b" /><path
             id="path17982"
             d="m 274.43,84.31 c 8.11,-4.62 15.63,-10.14 23.17,-15.6 -4.43,6.46 -10.95,11.05 -16.46,16.48 -1,2.89 -1.18,5.98 -1.65,8.98 -1.4,-0.89 -2.73,-1.9 -4.05,-2.9 -1.27,0.59 -2.54,1.17 -3.8,1.75 0.81,-2.94 1.75,-5.84 2.79,-8.71 z"
             inkscape:connector-curvature="0"
             style="fill:#66999a" /><path
             id="path17984"
             d="m 311.21,68.28 c 7.24,5.39 14.24,11.14 22,15.81 0.34,2.28 1.35,4.68 0.57,6.95 -1.75,1.78 -3.89,3.51 -6.56,2.97 1.26,-2.91 -0.14,-6.13 -0.26,-9.14 -5.6,-5.14 -11.89,-9.93 -15.75,-16.59 z"
             inkscape:connector-curvature="0"
             style="fill:#659b9b" /><path
             id="path17986"
             d="m 271.64,93.02 c 1.26,-0.58 2.53,-1.16 3.8,-1.75 1.32,1 2.65,2.01 4.05,2.9 2.48,0.24 4.24,-1.63 5.95,-3.09 1.28,1.04 2.57,2.06 3.96,2.95 2.18,-0.23 4.07,-1.36 5.95,-2.4 0.3,0.17 0.88,0.5 1.18,0.66 2.69,2.72 6.29,1.18 8.61,-1.17 1.69,1.33 3.53,3.05 5.88,2.39 1.11,-0.69 2.19,-1.43 3.28,-2.16 0.93,0.64 1.85,1.28 2.81,1.89 2.51,1.8 5.02,-0.63 6.9,-2.16 1.04,1.01 2.08,2 3.21,2.93 2.67,0.54 4.81,-1.19 6.56,-2.97 1.05,0.79 2.11,1.58 3.19,2.34 0.01,8.76 0.03,17.52 -0.04,26.27 -6.66,-0.07 -13.33,0.02 -19.99,-0.13 -2.62,-0.06 -5.23,-0.06 -7.83,0 -4.34,0.1 -8.68,0.09 -13.02,0 -2.29,-0.03 -4.58,-0.01 -6.86,0.05 -3.54,0.1 -7.08,0.09 -10.62,0 -2.21,-0.05 -4.43,-0.07 -6.64,-0.07 -0.49,-8.82 0.08,-17.66 -0.33,-26.48 z"
             inkscape:connector-curvature="0"
             style="fill:#fefefe" /><path
             id="path17988"
             d="m 271.42,108.94 c 0.07,-5.3 -0.36,-10.63 0.22,-15.92 0.41,8.82 -0.16,17.66 0.33,26.48 2.21,0 4.43,0.02 6.64,0.07 l 0.15,1.32 c 0.94,8.53 0.36,17.25 1.79,25.69 4.64,3.63 10.31,5.86 14.48,10.09 -7.27,-2.66 -14.41,-5.91 -21.17,-9.64 -1.25,-6.3 -1.13,-12.8 -2.18,-19.14 -1.03,-6.28 -0.1,-12.63 -0.26,-18.95 z"
             inkscape:connector-curvature="0"
             style="fill:#66999a" /><path
             style="fill:#acacac;fill-opacity:1"
             id="path17992"
             d="m 338.99,107 c 16.74,2.64 33.18,7.08 48.97,13.23 15.04,6.13 29.57,13.59 43.01,22.73 20.05,13.31 37.53,30.16 52.66,48.81 -3.5,1.86 -7.13,3.48 -10.72,5.15 -1.6,3.66 -3.51,7.17 -5.35,10.71 1.7,-0.09 3.4,-0.21 5.11,-0.35 -0.19,4.77 -0.05,9.56 -0.21,14.34 -3.69,-3.42 -6.21,-7.8 -9.25,-11.75 -15.14,-19.71 -33.95,-36.56 -55.15,-49.53 -20.83,36.06 -41.7,72.1 -62.45,108.21 -6.7,10.93 -12.46,22.43 -19.53,33.13 -2.4,-1.67 -4.96,-3.1 -7.64,-4.26 0.96,-1.05 1.87,-2.16 2.62,-3.38 5.03,-9.06 10.37,-17.94 15.52,-26.93 21.23,-37.1 42.85,-73.98 63.99,-111.13 -14.45,-7.77 -29.76,-13.97 -45.66,-18.09 -4.94,-1.33 -9.95,-2.49 -15.05,-2.96 -0.28,1.42 -0.57,2.85 -0.79,4.28 0.37,-6.2 0.96,-12.38 1.49,-18.57 -0.4,-0.4 -1.21,-1.19 -1.61,-1.58 0.03,-4.02 0.04,-8.04 0.04,-12.06 z"
             inkscape:connector-curvature="0" /><path
             id="path17998"
             d="m 278.61,119.57 c 3.54,0.09 7.08,0.1 10.62,0 l -0.01,1.34 c -3.48,0.05 -6.98,0.25 -10.46,-0.02 l -0.15,-1.32 z"
             inkscape:connector-curvature="0"
             style="fill:#234b4a" /><path
             id="path18000"
             d="m 289.23,119.57 c 2.28,-0.06 4.57,-0.08 6.86,-0.05 1.16,8.43 0.16,16.98 0.91,25.44 1.41,5.34 4.77,9.96 6.25,15.31 -3.72,-3.13 -6.65,-7.05 -10.17,-10.38 -1.48,-1.72 -3.84,-3.28 -3.68,-5.82 -0.06,-7.72 -0.13,-15.44 -0.18,-23.16 l 0.01,-1.34 z"
             inkscape:connector-curvature="0"
             style="fill:#669a9a" /><path
             id="path18002"
             d="m 309.11,119.52 c 2.6,-0.06 5.21,-0.06 7.83,0 -0.22,8.76 -0.32,17.59 -1.34,26.28 -3.02,5.23 -6.97,9.92 -10.82,14.57 0.58,-4.87 2.37,-9.48 3.1,-14.32 0.81,-8.82 0.35,-17.71 1.23,-26.53 z"
             inkscape:connector-curvature="0"
             style="fill:#66999a" /><path
             id="path18004"
             d="m 327.07,120.45 c 2.22,0.06 4.45,0.11 6.68,0.15 -0.65,8.69 -0.43,17.44 -1.32,26.11 -5.17,3.99 -11.76,5.69 -16.85,9.85 l 2.53,-0.03 c -3.1,1.36 -6.19,2.73 -9.37,3.88 4.07,-6.35 11.9,-8.6 17.17,-13.71 0.98,-8.69 0.74,-17.51 1.16,-26.25 z"
             inkscape:connector-curvature="0"
             style="fill:#66999a" /><path
             id="path18014"
             d="m 98.92,158.09 c 1.64,-1.84 3.48,-0.57 5.09,0.59 -0.7,1.07 -1.41,2.14 -2.11,3.22 2.15,0.17 4.52,-0.29 6.54,0.6 0.81,1.25 1.27,2.74 2.28,3.86 2.77,1.06 5.86,0.26 8.75,0.37 -2.64,2.64 -6.01,4.26 -9.66,4.92 -0.33,-0.68 -0.98,-2.03 -1.3,-2.71 -1.85,-0.01 -3.7,0 -5.55,0.02 0.04,2.01 0.09,4.02 0.14,6.03 6.41,6.91 13.9,12.86 22.34,17.09 3.51,1.78 7.15,3.25 10.8,4.7 1.18,3.32 2.59,6.56 3.73,9.9 -2.12,0.21 -4.23,0.42 -6.35,0.66 -0.96,-0.86 -1.92,-1.73 -2.83,-2.64 -0.31,-2.17 -0.34,-4.39 -0.99,-6.49 -2.7,-2.7 -6.19,-4.4 -9.23,-6.67 -5.06,-3.38 -9.51,-7.54 -14.38,-11.16 4.52,7.09 11.06,12.54 17.26,18.09 0.42,3.17 0.87,6.33 1.47,9.47 -1.57,-0.96 -3.08,-1.99 -4.59,-3.04 -1.15,0.75 -2.31,1.5 -3.49,2.2 -0.68,-1.43 -1.22,-1.39 -1.62,0.13 l -1.2,-0.49 c -0.13,-3.76 -0.76,-7.55 -2.77,-10.8 -3.61,-6.17 -5.97,-12.94 -9.16,-19.32 0.61,10.35 3.07,20.49 3.92,30.82 -1.49,-0.77 -2.92,-1.64 -4.34,-2.52 -1.23,0.69 -2.46,1.41 -3.73,2.04 -0.57,-1.06 -2.69,-1.67 -2.79,0.03 -0.5,-0.27 -1.51,-0.81 -2.01,-1.08 1.56,-9.97 5.87,-19.23 7.63,-29.16 -4.13,6.01 -6.92,12.85 -11.46,18.6 -2.84,3.33 -3.87,8.14 -1.63,12.08 -2.2,-0.09 -4.04,-1.29 -5.76,-2.54 -1.82,1.36 -3.81,2.58 -6.12,2.86 0.66,-3.16 0.61,-6.7 2.35,-9.5 5.55,-5.45 11.98,-10.13 16.53,-16.53 -6.77,4.89 -13.34,10.09 -20.66,14.19 -4.12,1.82 -4.88,6.61 -5.78,10.52 -0.46,8.77 0.27,17.57 -0.39,26.34 -0.35,9.39 1.53,18.72 2.42,28.05 6.92,3.55 14.27,6.27 21.02,10.15 l -1.33,0.38 c -1.32,-0.51 -2.62,-1.06 -3.92,-1.61 -6.29,-2.82 -12.87,-4.96 -19.1,-7.9 -0.79,-2.51 -0.7,-5.19 -0.91,-7.79 -0.22,-6.69 -1.2,-13.35 -1.11,-20.04 l 0.9,-1.52 c 0.64,-8.35 0.05,-16.74 0.3,-25.11 -0.81,0.06 -2.42,0.19 -3.23,0.25 -0.36,-0.11 -1.08,-0.34 -1.44,-0.46 1.93,-3.33 3.45,-6.89 5.46,-10.16 6.26,-3.34 12.9,-6.09 18.68,-10.3 4.93,-3.62 10.25,-7.08 14,-11.97 0.64,-4.18 0.38,-8.43 0.42,-12.64 -0.42,-1.32 -0.85,-2.64 -1.09,-4.01 z"
             inkscape:connector-curvature="0"
             style="fill:#326666" /><path
             id="path18016"
             d="m 504.79,159.03 c 0.82,-0.89 1.64,-1.76 2.46,-2.64 0.95,0.94 1.9,1.9 2.83,2.87 -0.66,0.85 -1.32,1.69 -1.97,2.54 2.35,0.12 4.69,0.28 7.03,0.57 0.58,1.43 0.4,3.61 2.2,4.18 2.72,0.77 5.59,0.11 8.36,0.01 -2.52,2.9 -6,4.57 -9.79,4.99 -0.29,-0.67 -0.87,-2 -1.15,-2.66 -1.93,0.04 -3.86,0.11 -5.78,0.21 0.36,2.43 -0.31,5.4 1.72,7.25 8.65,9.32 19.78,16.13 31.74,20.33 1.28,3.63 2.76,7.18 4.13,10.77 -1.67,0.12 -3.35,0.21 -5.01,0.29 -0.02,8.22 0.07,16.44 -0.07,24.65 0.44,0.36 1.34,1.09 1.78,1.45 -0.42,5.56 -0.84,11.12 -1.51,16.65 -2.24,2.74 -1.99,6.2 -0.72,9.3 0.04,0.51 0.11,1.52 0.15,2.03 -6.12,2.46 -12.22,4.96 -18.34,7.41 -2.38,0.96 -4.73,1.98 -7.12,2.88 l -1.28,-0.67 c 6.95,-3.43 13.76,-7.17 20.67,-10.68 0.92,-8.92 0.6,-17.91 1.45,-26.83 1.44,-0.09 2.88,-0.18 4.34,-0.26 0.63,-6.87 0.15,-13.78 0.3,-20.67 -0.17,-1.98 0.33,-4.41 -1.32,-5.89 -0.99,-0.83 -2,-1.63 -2.95,-2.48 -0.34,-2.18 -0.28,-4.44 -1.07,-6.51 -2.55,-2.56 -5.82,-4.2 -8.71,-6.31 -4.52,-2.97 -8.48,-6.7 -13.06,-9.57 3.65,6.11 9.41,10.41 14.45,15.29 2.88,2.68 0.12,8.24 4.15,10.06 -2.35,0.06 -4.28,-1.23 -6.01,-2.65 -1.31,0.76 -2.61,1.53 -3.93,2.24 -0.61,-1.47 -1.15,-1.46 -1.62,0.04 l -1.01,-0.51 c -0.33,-3.31 -0.33,-6.78 -2.09,-9.73 -3.38,-6.31 -6.71,-12.69 -8.75,-19.58 -0.14,-1.2 -1.61,-1.14 -2.43,-1.61 -3.47,7.28 -7.36,14.39 -12.16,20.89 -2.6,3.08 -1.92,7.32 -1.89,11.04 -1.59,-0.88 -3.13,-1.84 -4.66,-2.8 -1.85,1.37 -3.85,2.64 -6.21,2.77 0.88,-3.71 0.51,-8.35 3.88,-10.88 5.12,-4.56 10.39,-9.03 14.62,-14.45 -4.73,2.85 -8.84,6.6 -13.57,9.47 -3.01,2.03 -6.36,3.58 -9.15,5.93 -2.16,2.32 -2.27,5.73 -2.99,8.66 -0.14,0.05 -0.4,0.17 -0.53,0.22 -0.39,0.16 -1.15,0.48 -1.53,0.64 -1.71,0.14 -3.41,0.26 -5.11,0.35 1.84,-3.54 3.75,-7.05 5.35,-10.71 3.59,-1.67 7.22,-3.29 10.72,-5.15 8.17,-4.54 15.79,-10.12 22.34,-16.8 0.01,-4.4 0.15,-8.79 0.43,-13.18 -0.54,-0.92 -1.08,-1.84 -1.61,-2.76 z"
             inkscape:connector-curvature="0"
             style="fill:#336666" /><path
             style="fill:#acacac;fill-opacity:1"
             id="path18020"
             d="m 300.11,160.36 c 2.66,1.54 5.67,1.59 8.39,0.14 0.29,34.69 -0.04,69.39 0.16,104.08 0.02,10.1 -0.14,20.21 0.06,30.32 -2.82,-0.24 -5.65,-0.27 -8.47,-0.06 -0.14,-10.6 -0.13,-21.2 -0.15,-31.8 0.03,-34.22 0.02,-68.45 0.01,-102.68 z"
             inkscape:connector-curvature="0" /><path
             id="path18026"
             d="m 506.86,175.79 c 0.82,0.47 2.29,0.41 2.43,1.61 2.04,6.89 5.37,13.27 8.75,19.58 1.76,2.95 1.76,6.42 2.09,9.73 -1.05,-0.53 -2.08,-1.07 -3.11,-1.61 -1.57,0.86 -3.14,1.71 -4.76,2.45 -0.4,-8.3 -2.5,-16.37 -3.34,-24.61 -0.25,-1.91 -0.63,-3.8 -1.13,-5.66 -0.19,0.01 -0.58,0.01 -0.77,0.01 -1.66,5.14 -2.45,10.52 -4.31,15.6 -1.56,4.24 -2.88,8.61 -3.07,13.16 -0.39,-0.24 -1.18,-0.73 -1.57,-0.97 -1.7,0.98 -3.43,1.92 -5.26,2.64 -0.03,-3.72 -0.71,-7.96 1.89,-11.04 4.8,-6.5 8.69,-13.61 12.16,-20.89 z"
             inkscape:connector-curvature="0"
             style="fill:#669a9a" /><path
             id="path18028"
             d="m 89.31,195.35 c 4.54,-5.75 7.33,-12.59 11.46,-18.6 -1.76,9.93 -6.07,19.19 -7.63,29.16 -1.92,-1.46 -3.68,0.98 -5.46,1.52 -2.24,-3.94 -1.21,-8.75 1.63,-12.08 z"
             inkscape:connector-curvature="0"
             style="fill:#669a9b" /><path
             id="path18030"
             d="m 102.09,176.62 c 3.19,6.38 5.55,13.15 9.16,19.32 2.01,3.25 2.64,7.04 2.77,10.8 -1.12,-0.43 -2.21,-1.05 -3.4,-1.26 -1.57,0.56 -3.07,1.31 -4.61,1.96 -0.85,-10.33 -3.31,-20.47 -3.92,-30.82 z"
             inkscape:connector-curvature="0"
             style="fill:#66999a" /><path
             id="path18032"
             d="m 507.02,177.29 c 0.19,0 0.58,0 0.77,-0.01 0.5,1.86 0.88,3.75 1.13,5.66 0.84,8.24 2.94,16.31 3.34,24.61 -1.48,-0.82 -2.9,-1.74 -4.31,-2.67 -1.34,0.77 -2.68,1.54 -4.06,2.23 -0.04,-1.7 -2.17,-1.2 -2.81,-0.2 -0.36,-0.21 -1.08,-0.64 -1.44,-0.86 0.19,-4.55 1.51,-8.92 3.07,-13.16 1.86,-5.08 2.65,-10.46 4.31,-15.6 z"
             inkscape:connector-curvature="0"
             style="fill:#326767" /><path
             id="path18034"
             d="m 106.19,180.38 c 4.87,3.62 9.32,7.78 14.38,11.16 3.04,2.27 6.53,3.97 9.23,6.67 0.65,2.1 0.68,4.32 0.99,6.49 -1.92,1.14 -3.84,2.3 -5.87,3.24 -0.6,-3.14 -1.05,-6.3 -1.47,-9.47 -6.2,-5.55 -12.74,-11 -17.26,-18.09 z"
             inkscape:connector-curvature="0"
             style="fill:#669a9b" /><path
             id="path18036"
             d="m 74.02,195.91 c 7.32,-4.1 13.89,-9.3 20.66,-14.19 -4.55,6.4 -10.98,11.08 -16.53,16.53 -1.74,2.8 -1.69,6.34 -2.35,9.5 -1.32,-0.91 -2.6,-1.86 -3.88,-2.81 -1.23,0.5 -2.45,0.99 -3.68,1.49 0.9,-3.91 1.66,-8.7 5.78,-10.52 z"
             inkscape:connector-curvature="0"
             style="fill:#66999b" /><path
             id="path18038"
             d="m 486.87,191.83 c 4.73,-2.87 8.84,-6.62 13.57,-9.47 -4.23,5.42 -9.5,9.89 -14.62,14.45 -3.37,2.53 -3,7.17 -3.88,10.88 -1.31,-0.89 -2.57,-1.84 -3.83,-2.77 -1.13,0.5 -2.26,1 -3.38,1.5 0.72,-2.93 0.83,-6.34 2.99,-8.66 2.79,-2.35 6.14,-3.9 9.15,-5.93 z"
             inkscape:connector-curvature="0"
             style="fill:#669a9a" /><path
             id="path18040"
             d="m 514.1,182.24 c 4.58,2.87 8.54,6.6 13.06,9.57 2.89,2.11 6.16,3.75 8.71,6.31 0.79,2.07 0.73,4.33 1.07,6.51 -1.4,1 -2.79,2.04 -4.24,2.96 -4.03,-1.82 -1.27,-7.38 -4.15,-10.06 -5.04,-4.88 -10.8,-9.18 -14.45,-15.29 z"
             inkscape:connector-curvature="0"
             style="fill:#669b9c" /><path
             id="path18042"
             d="m 68.24,206.43 c 1.23,-0.5 2.45,-0.99 3.68,-1.49 1.28,0.95 2.56,1.9 3.88,2.81 2.31,-0.28 4.3,-1.5 6.12,-2.86 1.72,1.25 3.56,2.45 5.76,2.54 1.78,-0.54 3.54,-2.98 5.46,-1.52 0.5,0.27 1.51,0.81 2.01,1.08 0.7,-0.01 2.09,-0.02 2.79,-0.03 1.27,-0.63 2.5,-1.35 3.73,-2.04 1.42,0.88 2.85,1.75 4.34,2.52 1.54,-0.65 3.04,-1.4 4.61,-1.96 1.19,0.21 2.28,0.83 3.4,1.26 l 1.2,0.49 c 0.41,-0.03 1.22,-0.1 1.62,-0.13 1.18,-0.7 2.34,-1.45 3.49,-2.2 1.51,1.05 3.02,2.08 4.59,3.04 2.03,-0.94 3.95,-2.1 5.87,-3.24 0.91,0.91 1.87,1.78 2.83,2.64 0.03,8.68 0.05,17.36 -0.01,26.05 -0.84,-0.06 -2.52,-0.16 -3.36,-0.22 -2.14,-0.12 -4.28,-0.15 -6.42,-0.11 -3.34,0.07 -6.68,0.09 -10.02,-0.03 -2.87,-0.11 -5.73,-0.12 -8.6,-0.01 -4.11,0.14 -8.22,0.12 -12.33,0.08 -2.5,-0.03 -5,-0.03 -7.5,-0.01 -3.48,0.03 -6.97,0.09 -10.45,0.01 -2.36,-0.08 -4.72,-0.21 -7.08,-0.33 0.66,-8.77 -0.07,-17.57 0.39,-26.34 z"
             inkscape:connector-curvature="0"
             style="fill:#fefefe" /><path
             id="path18044"
             d="m 474.73,206.42 c 1.12,-0.5 2.25,-1 3.38,-1.5 1.26,0.93 2.52,1.88 3.83,2.77 2.36,-0.13 4.36,-1.4 6.21,-2.77 1.53,0.96 3.07,1.92 4.66,2.8 1.83,-0.72 3.56,-1.66 5.26,-2.64 0.39,0.24 1.18,0.73 1.57,0.97 0.36,0.22 1.08,0.65 1.44,0.86 0.7,0.05 2.11,0.15 2.81,0.2 1.38,-0.69 2.72,-1.46 4.06,-2.23 1.41,0.93 2.83,1.85 4.31,2.67 1.62,-0.74 3.19,-1.59 4.76,-2.45 1.03,0.54 2.06,1.08 3.11,1.61 l 1.01,0.51 c 0.4,-0.01 1.21,-0.03 1.62,-0.04 1.32,-0.71 2.62,-1.48 3.93,-2.24 1.73,1.42 3.66,2.71 6.01,2.65 1.45,-0.92 2.84,-1.96 4.24,-2.96 0.95,0.85 1.96,1.65 2.95,2.48 -0.08,8.73 -0.01,17.46 -0.04,26.2 -0.8,-0.05 -2.41,-0.13 -3.21,-0.18 -2.21,-0.11 -4.4,-0.12 -6.6,-0.07 -3.38,0.08 -6.7599,0.09 -10.14,-0.01 -2.71,-0.08 -5.4301,-0.07 -8.13,0.01 -4.26,0.11 -8.52,0.08 -12.77,0 -2.38,-0.04 -4.75,-0.04 -7.12,0 -3.59,0.05 -7.18,0.13 -10.76,0.07 -2.45,-0.09 -4.88,-0.37 -7.28,-0.78 0.95,-8.52 0.2,-17.15 0.36,-25.71 0.13,-0.05 0.39,-0.17 0.53,-0.22 z"
             inkscape:connector-curvature="0"
             style="fill:#fefefe" /><path
             id="path18046"
             d="m 95.15,206.99 c 0.1,-1.7 2.22,-1.09 2.79,-0.03 -0.7,0.01 -2.09,0.02 -2.79,0.03 z"
             inkscape:connector-curvature="0"
             style="fill:#234541" /><path
             id="path18048"
             d="m 115.22,207.23 c 0.4,-1.52 0.94,-1.56 1.62,-0.13 -0.4,0.03 -1.21,0.1 -1.62,0.13 z"
             inkscape:connector-curvature="0"
             style="fill:#1f3f3e" /><path
             id="path18050"
             d="m 501.08,206.91 c 0.64,-1 2.77,-1.5 2.81,0.2 -0.7,-0.05 -2.11,-0.15 -2.81,-0.2 z"
             inkscape:connector-curvature="0"
             style="fill:#254544" /><path
             id="path18052"
             d="m 521.14,207.22 c 0.47,-1.5 1.01,-1.51 1.62,-0.04 -0.41,0.01 -1.22,0.03 -1.62,0.04 z"
             inkscape:connector-curvature="0"
             style="fill:#173935" /><path
             id="path18054"
             d="m 133.62,207.34 c 2.12,-0.24 4.23,-0.45 6.35,-0.66 l -0.31,0.7 c -1.51,0.08 -3.02,0.1 -4.52,0.14 0.19,8.59 -0.07,17.19 0.07,25.78 -1.68,0.26 -3.34,0.61 -5,0.95 l 0.04,-1.08 c 0.84,0.06 2.52,0.16 3.36,0.22 0.06,-8.69 0.04,-17.37 0.01,-26.05 z"
             inkscape:connector-curvature="0"
             style="fill:#336666;fill-opacity:1" /><path
             id="path18056"
             d="m 472.67,207.28 c 0.38,-0.16 1.14,-0.48 1.53,-0.64 -0.16,8.56 0.59,17.19 -0.36,25.71 -0.34,0.19 -1.01,0.59 -1.35,0.79 0.01,-0.85 0.03,-2.53 0.04,-3.37 -0.02,-2.72 -0.08,-5.44 -0.07,-8.15 0.16,-4.78 0.02,-9.57 0.21,-14.34 z"
             inkscape:connector-curvature="0"
             style="fill:#023234" /><path
             id="path18058"
             d="m 539.89,207.11 c 1.65,1.48 1.15,3.91 1.32,5.89 -0.15,6.89 0.33,13.8 -0.3,20.67 -1.46,0.08 -2.9,0.17 -4.34,0.26 l 0.07,-0.8 c 0.8,0.05 2.41,0.13 3.21,0.18 0.03,-8.74 -0.04,-17.47 0.04,-26.2 z"
             inkscape:connector-curvature="0"
             style="fill:#183c3a" /><path
             sodipodi:nodetypes="cccccccccc"
             style="fill:#acacac;fill-opacity:1"
             id="path18062"
             d="m 455.4,239.25 c 5.71,-3.15 11.16,-6.79 17.13,-9.48 -0.01,0.84 -0.03,2.52 -0.04,3.37 -0.34,0.21 0.42018,1.40911 0.0802,1.61911 0.03,1.93 -1.28018,3.09089 -1.16018,5.02089 -19.24,11.32 -38.64,22.36 -57.96,33.55 -25.03,14.3 -49.84,29 -74.99,43.09 -1.5,-2.35 -2.92,-4.76 -4.53,-7.03 20.85,-12.17 41.92,-23.94 62.61,-36.36 19.78,-10.98 39.23,-22.55 58.86,-33.78 z"
             inkscape:connector-curvature="0" /><path
             id="path18064"
             d="m 67.85,232.77 c 2.36,0.12 4.72,0.25 7.08,0.33 0.93,8.79 0.82,17.67 1.81,26.44 5.39,5.63 13.89,7.46 18.56,13.88 -1.79,-0.67 -3.57,-1.35 -5.34,-2.07 l 1.33,-0.38 c -6.75,-3.88 -14.1,-6.6 -21.02,-10.15 -0.89,-9.33 -2.77,-18.66 -2.42,-28.05 z"
             inkscape:connector-curvature="0"
             style="fill:#669a9a" /><path
             id="path18066"
             d="m 74.93,233.1 c 3.48,0.08 6.97,0.02 10.45,-0.01 0.84,8.86 -0.38,17.87 1,26.66 3.8,5.11 8.64,9.41 13.22,13.84 -1.64,-6.4 -6.75,-11.75 -6.36,-18.64 -0.04,-7.29 -0.17,-14.57 -0.36,-21.85 4.11,0.04 8.22,0.06 12.33,-0.08 -0.22,7.66 -0.44,15.32 -0.59,22.98 -0.07,6.26 -2.64,12.08 -3.65,18.19 3.63,-4.16 6.94,-8.6 10.15,-13.1 1.51,-2.04 1.41,-4.68 1.57,-7.09 0.22,-7 0.73,-13.99 1.12,-20.97 3.34,0.12 6.68,0.1 10.02,0.03 -0.75,9.12 -0.61,18.29 -1.19,27.42 -6.06,4.03 -11.96,8.28 -18.13,12.14 0.13,0.37 0.38,1.1 0.51,1.47 -3.17,2.11 -6.63,0.83 -9.72,-0.67 C 90.63,267 82.13,265.17 76.74,259.54 75.75,250.77 75.86,241.89 74.93,233.1 Z"
             inkscape:connector-curvature="0"
             style="fill:#336667" /><path
             id="path18068"
             d="m 85.38,233.09 c 2.5,-0.02 5,-0.02 7.5,0.01 0.19,7.28 0.32,14.56 0.36,21.85 -0.39,6.89 4.72,12.24 6.36,18.64 -4.58,-4.43 -9.42,-8.73 -13.22,-13.84 -1.38,-8.79 -0.16,-17.8 -1,-26.66 z"
             inkscape:connector-curvature="0"
             style="fill:#66999a" /><path
             id="path18070"
             d="m 105.21,233.02 c 2.87,-0.11 5.73,-0.1 8.6,0.01 -0.39,6.98 -0.9,13.97 -1.12,20.97 -0.16,2.41 -0.06,5.05 -1.57,7.09 -3.21,4.5 -6.52,8.94 -10.15,13.1 1.01,-6.11 3.58,-11.93 3.65,-18.19 0.15,-7.66 0.37,-15.32 0.59,-22.98 z"
             inkscape:connector-curvature="0"
             style="fill:#66999a" /><path
             id="path18072"
             d="m 123.83,233.06 c 2.14,-0.04 4.28,-0.01 6.42,0.11 l -0.04,1.08 c -0.4,8.84 -0.67,17.69 -1.34,26.52 -7.11,3.61 -14.14,7.36 -21.26,10.94 0.39,0.16 1.17,0.46 1.56,0.61 -1.39,0.58 -2.76,1.2 -4.15,1.77 -0.13,-0.37 -0.38,-1.1 -0.51,-1.47 6.17,-3.86 12.07,-8.11 18.13,-12.14 0.58,-9.13 0.44,-18.3 1.19,-27.42 z"
             inkscape:connector-curvature="0"
             style="fill:#66999a" /><path
             id="path18074"
             d="m 135.21,233.3 c 0.43,-0.05 1.28,-0.14 1.71,-0.19 -0.03,2.03 -0.15,4.06 -0.29,6.09 -0.6,7.56 -1.26,15.11 -1.85,22.66 -7.23,2.98 -14.52,5.83 -21.72,8.88 -1.29,0.54 -2.58,1.07 -3.89,1.58 -0.39,-0.15 -1.17,-0.45 -1.56,-0.61 7.12,-3.58 14.15,-7.33 21.26,-10.94 0.67,-8.83 0.94,-17.68 1.34,-26.52 1.66,-0.34 3.32,-0.69 5,-0.95 z"
             inkscape:connector-curvature="0"
             style="fill:#336667" /><path
             sodipodi:nodetypes="cccccccc"
             id="path18076"
             d="m 472.49,233.14 c 0.34,-0.2 1.01,-0.6 1.35,-0.79 -0.15,9.54 1.64,18.98 2.44,28.46 6.86,3.38 13.9,6.39 20.82,9.67 -0.34,0.23 -1.01,0.69 -1.35,0.92 -7.37,-3.72 -15.24,-6.33 -22.85,-9.5 -0.6,-7.37 -1,-14.75 -1.49,-22.12 0.0307,-2.60299 -1.21736,-5.10345 1.08,-6.64 z"
             inkscape:connector-curvature="0"
             style="fill:#295c58" /><path
             id="path18078"
             d="m 473.84,232.35 c 2.4,0.41 4.83,0.69 7.28,0.78 1.08,8.94 1,17.96 1.78,26.92 6.82,4.6 14.27,8.38 20.37,13.97 -2.53,-0.83 -5.06,-1.64 -7.52,-2.62 0.34,-0.23 1.01,-0.69 1.35,-0.92 -6.92,-3.28 -13.96,-6.29 -20.82,-9.67 -0.8,-9.48 -2.59,-18.92 -2.44,-28.46 z"
             inkscape:connector-curvature="0"
             style="fill:#66999a" /><path
             id="path18080"
             d="m 481.12,233.13 c 3.58,0.06 7.17,-0.02 10.76,-0.07 0.05,8.83 -0.34,17.76 0.69,26.52 3.93,5.11 8.59,9.71 13.37,14.05 -1.87,-6.32 -6.69,-11.79 -6.53,-18.62 -0.08,-7.32 -0.02,-14.64 -0.41,-21.95 4.25,0.08 8.51,0.11 12.77,0 -0.85,7.95 -0.51,15.95 -0.94,23.92 -0.29,5.93 -2.56,11.49 -3.67,17.27 3.04,-3.37 5.63,-7.11 8.43,-10.69 1.45,-1.92 3.08,-3.96 3.0699,-6.5 0.44,-8 0.9301,-16 1.2401,-24.01 3.38,0.1 6.7599,0.09 10.14,0.01 -0.5,9.05 -0.84,18.11 -1.07,27.17 -5.02,3.77 -10.36,7.09 -15.48,10.72 l 0.96,0.49 1.28,0.67 c -2.88,1.16 -5.75,2.35 -8.62,3.54 -1.29,-0.55 -2.57,-1.09 -3.84,-1.63 -6.1,-5.59 -13.55,-9.37 -20.37,-13.97 -0.78,-8.96 -0.7,-17.98 -1.78,-26.92 z"
             inkscape:connector-curvature="0"
             style="fill:#336667" /><path
             id="path18082"
             d="m 491.88,233.06 c 2.37,-0.04 4.74,-0.04 7.12,0 0.39,7.31 0.33,14.63 0.41,21.95 -0.16,6.83 4.66,12.3 6.53,18.62 -4.78,-4.34 -9.44,-8.94 -13.37,-14.05 -1.03,-8.76 -0.64,-17.69 -0.69,-26.52 z"
             inkscape:connector-curvature="0"
             style="fill:#66999a" /><path
             id="path18084"
             d="m 511.77,233.06 c 2.7,-0.08 5.42,-0.09 8.13,-0.01 -0.31,8.01 -0.8,16.01 -1.2401,24.01 0.01,2.54 -1.62,4.58 -3.0699,6.5 -2.8,3.58 -5.39,7.32 -8.43,10.69 1.11,-5.78 3.38,-11.34 3.67,-17.27 0.43,-7.97 0.09,-15.97 0.94,-23.92 z"
             inkscape:connector-curvature="0"
             style="fill:#66999a" /><path
             id="path18086"
             d="m 530.04,233.06 c 2.2,-0.05 4.39,-0.04 6.6,0.07 l -0.07,0.8 c -0.85,8.92 -0.53,17.91 -1.45,26.83 -6.91,3.51 -13.72,7.25 -20.67,10.68 l -0.96,-0.49 c 5.12,-3.63 10.46,-6.95 15.48,-10.72 0.23,-9.06 0.57,-18.12 1.07,-27.17 z"
             inkscape:connector-curvature="0"
             style="fill:#679999" /><path
             id="path18092"
             d="m 253.19,252.51 c -2.48,-1.71 -5.27,-4.01 -3.55,-7.32 1.16,1.88 2.35,3.75 3.41,5.7 l 0.14,1.62 z"
             inkscape:connector-curvature="0"
             style="fill:#e6f9fb" /><path
             id="path18096"
             d="m 541.04,259.79 c -1.27,-3.1 -1.52,-6.56 0.72,-9.3 -0.18,3.11 -0.41,6.21 -0.72,9.3 z"
             inkscape:connector-curvature="0"
             style="fill:#234b49" /><path
             sodipodi:nodetypes="ccccccccccccccc"
             style="fill:#acacac;fill-opacity:1"
             id="path18178"
             d="m 232.02,368.12 c 2.3,-1.33 4.77,-2.34 7.27,-3.2 -3.35,5.42 -6.72,10.84 -10.25,16.15 l 0.48,-1.4 c -31.03,17.42 -61.62,35.6 -92.56,53.15 -4.85928,7.05611 7.83437,19.34646 11.98,24.36 5.6,7.37 12.3,13.78 18.66,20.46 -4.96,7.58 -9.71,15.3 -14.65,22.9 -8.64,-7.86 -16.8,-16.25 -24.16,-25.31 l 6,-2.46 c 0.64,-9.54 1.76,-19.05 2.16,-28.6 -0.43,0.05 -1.29,0.14 -1.72,0.19 -0.17,-8.23 0.07,-16.46 -0.08,-24.68 0.24,1.38 0.53,2.75 0.82,4.13 31.82,-18.9 64.18,-36.87 96.05,-55.69 z"
             inkscape:connector-curvature="0" /><path
             id="path18126"
             transform="matrix(0.47508275,0,0,0.50742459,40.177361,-27.354314)"
             d="M 556.33984 634.6875 C 553.36668 634.66533 550.39369 634.75401 547.42578 634.96094 C 539.84815 635.82806 532.37562 637.62042 525.32422 640.33984 C 519.87254 642.68502 514.65181 645.48426 509.81055 648.77539 C 503.93789 653.18984 498.44523 658.11618 493.81445 663.69336 C 490.42557 668.18664 487.41516 672.93678 484.25781 677.60742 C 479.4376 684.76119 474.59625 691.87392 469.71289 698.98828 C 465.81883 704.64429 461.96719 710.3399 458.11523 716.01562 C 445.12802 735.05294 432.35113 754.18871 419.11133 773.06836 C 412.05993 783.74975 404.96739 794.43188 397.53711 804.89648 C 368.1738 848.23297 338.8099 891.56957 309.13086 934.70898 C 295.65952 954.98786 281.68227 974.93206 268.21094 995.21094 C 257.77065 1010.1491 247.77319 1025.3622 237.375 1040.3398 C 184.64734 1118.4992 130.78367 1195.9889 78.498047 1274.3848 C 225.65136 1274.9366 372.8252 1274.1884 519.97852 1274.7402 C 520.03017 1274.6116 520.07926 1274.4822 520.13086 1274.3535 C 672.22199 1274.8757 903.99336 1279.643 1036.9258 1279.1445 C 984.64015 1200.7486 930.77453 1123.259 878.04688 1045.0996 C 869.6144 1032.9534 861.43475 1020.6588 853.08008 1008.4746 C 853.09306 1008.4674 853.10616 1008.4604 853.11914 1008.4531 C 849.94075 1003.7628 846.78386 999.0927 843.60547 994.40234 C 833.69162 979.8698 823.7962 965.3233 813.89453 950.78125 C 811.35137 947.01515 808.80538 943.2498 806.29102 939.46484 C 800.86326 931.57543 795.45544 923.67474 790.04688 915.77344 C 777.11586 896.77703 764.1752 877.78532 751.22656 858.79883 C 746.19744 851.39284 741.17216 843.98363 736.14844 836.57422 C 735.45543 835.55348 734.76559 834.53092 734.07031 833.51172 C 728.67808 825.55766 723.27505 817.60966 717.88477 809.6543 C 717.75286 809.46852 717.62584 809.27966 717.49414 809.09375 C 716.61461 807.77229 715.7201 806.45989 714.84961 805.13281 C 710.05416 798.32158 705.37182 791.44056 700.74805 784.5293 C 699.26599 782.2959 697.78622 780.0615 696.31055 777.82617 C 696.14071 777.58398 695.97438 777.33993 695.80469 777.09766 C 694.94739 775.80069 694.08637 774.50536 693.23242 773.20703 C 681.51111 756.46637 670.0999 739.53288 658.59375 722.66797 C 658.16421 722.03749 657.73857 721.40567 657.30859 720.77539 C 655.70975 718.41954 654.10958 716.05984 652.50781 713.70117 C 649.22779 708.86272 645.95382 704.024 642.69336 699.18555 C 638.79644 693.52721 634.90092 687.8607 631.03906 682.17383 C 628.71681 678.73279 626.46683 675.25137 624.08594 671.86328 C 624.08489 671.86179 624.08308 671.86086 624.08203 671.85938 C 622.22267 669.07531 620.34191 666.306 618.31836 663.63477 C 613.5192 657.93934 607.94122 652.83419 601.79492 648.43945 C 596.74317 645.14832 591.35597 642.33098 585.71484 640.04492 C 579.08442 637.75887 572.28426 635.8073 565.25391 635.07812 C 562.286 634.84164 559.31301 634.70967 556.33984 634.6875 z M 559.02344 660.79102 C 572.48236 660.63443 585.95115 664.86817 595.86719 673.77344 C 598.56107 675.94104 600.95107 678.36279 603.04688 680.97266 C 610.51548 693.00009 612.51157 707.90048 608.2793 721.33789 C 609.37752 723.06918 610.50491 724.7823 611.62305 726.50195 C 611.61828 726.51753 611.61416 726.53325 611.60938 726.54883 C 612.15408 727.3763 612.70863 728.19754 613.25586 729.02344 C 619.15556 738.00849 625.25585 746.87856 631.22266 755.82617 C 631.36407 756.03078 631.50315 756.23678 631.64453 756.44141 C 632.53042 757.76913 633.42252 759.09275 634.30273 760.42383 C 649.90625 783.10169 665.40649 805.83632 680.88477 828.58203 C 698.76999 854.86481 716.63358 881.15909 734.5332 907.43555 C 743.3577 920.42279 752.19209 933.40488 761.02148 946.38867 C 762.70982 948.86909 764.39622 951.3505 766.08594 953.83008 C 774.92547 966.82387 783.77585 979.81148 792.63477 992.79297 C 799.98128 1003.5882 807.31725 1014.3882 814.60742 1025.2148 C 824.83722 1040.1727 835.08639 1055.1295 845.21094 1070.1465 C 878.53145 1119.4543 912.52496 1168.3703 945.55078 1217.8555 C 846.11999 1218.2515 664.11099 1215.5872 543.84375 1215.0527 C 544.37418 1213.6817 544.8748 1212.3016 545.2793 1210.8887 C 527.80866 1201.9612 518.69478 1183.6725 517.1582 1165.6797 C 519.62093 1164.4184 522.06114 1163.1571 524.54492 1161.9746 C 524.27129 1153.8552 524.14605 1145.754 524.125 1137.6543 C 516.75786 1137.674 509.39058 1137.6937 502.02344 1137.6543 C 503.49687 1155.2727 503.98054 1172.9322 505.11719 1190.5703 C 517.24139 1198.8474 531.40805 1204.6793 542.35352 1214.3359 C 525.00917 1207.6946 508.44266 1199.1018 491.22461 1192.0859 C 490.34055 1173.5809 486.38324 1155.2925 486.21484 1136.7676 L 482.99414 1137.123 L 481.08008 1138.2656 C 480.80644 1156.9876 482.61556 1175.6906 484.23633 1194.3535 C 500.0441 1200.4431 516.10431 1205.9815 531.5332 1212.8594 C 524.77649 1213.1944 518.00042 1213.3519 511.22266 1213.3125 C 500.35217 1213.2918 489.48022 1213.2813 478.60938 1213.2715 C 478.77712 1213.2002 478.94067 1213.1313 479.0918 1213.0664 C 475.95024 1213.0311 463.30526 1212.8751 462.05078 1212.8633 C 462.0901 1212.9963 462.14098 1213.1253 462.18164 1213.2578 C 364.75327 1213.2092 267.31268 1213.4838 169.87109 1213.0957 C 202.89692 1163.6105 236.89043 1114.6965 270.21094 1065.3887 C 279.83154 1051.1191 289.56681 1036.903 299.28906 1022.6895 C 299.69024 1022.2778 300.01296 1021.914 300.21094 1021.6211 C 338.41481 965.82955 379.94738 913.49359 418.00391 857.60352 C 440.10532 825.28344 461.93137 792.80357 484.20117 760.58203 C 491.86299 749.09264 499.75634 737.7408 507.14453 726.09375 C 501.92439 709.51986 506.17464 690.71869 518.48828 677.83008 C 528.52995 666.78472 543.76999 660.96848 559.02344 660.79102 z M 472.11914 1213.0938 C 471.9545 1213.1607 471.85709 1213.1971 471.69336 1213.2637 C 471.63346 1213.2636 471.57357 1213.2637 471.51367 1213.2637 C 471.72344 1213.2077 471.90194 1213.1493 472.11914 1213.0938 z "
             style="fill:#717171;fill-opacity:1;stroke:#717171;stroke-width:2.03671193;stroke-opacity:1" /><path
             sodipodi:nodetypes="ccccccccccccccccccc"
             style="fill:#acacac;fill-opacity:1"
             id="path18106"
             d="m 515.73,272.11 c 2.39,-0.9 4.74,-1.92 7.12,-2.88 0.77,3.04 1.53,6.08 2.2401,9.14 7.95,32.92 8.37,67.66 1.19,100.76 -1.23,6.03 -2.92,11.95 -4.41,17.92 -1.72,-1.25 -5.9595,2.58576 -7.5795,1.23576 -17.83971,-24.60858 -6.00694,10.87199 -20.5905,-1.98576 4.61907,-17.72134 10.06659,-40.06842 10.59,-60.57 -28.43,-0.27 -56.85,-0.04 -85.27,-0.11 -22.38,0.11 -44.76,-0.25 -67.12,0.18 l -0.37,1.14 c -2.02,-3.17 -4.02,-6.34 -6.02,-9.51 19.14,-0.71 38.3,-0.14 57.45,-0.33 33.75,-0.02 67.5,0.08 101.25,-0.04 -0.14,-16.59 -2.64,-33.17 -7.2,-49.11 -0.55,-2.16 -0.92,-4.36 -1.26,-6.55 2.46,0.98 4.99,1.79 7.52,2.62 1.27,0.54 2.55,1.08 3.84,1.63 2.8699,-1.19 5.7399,-2.38 8.6199,-3.54 z"
             inkscape:connector-curvature="0" /><path
             inkscape:connector-curvature="0"
             id="path18906"
             d="m 295.53857,549.68018 -27.54794,0 2.13965,28.3503 23.80356,10.43078 4.54675,0.80236 1.60473,-2.67455 -11.76805,-23.26865 19.79172,-8.82604 9.89586,-4.27929 -14.97752,0.26746 z"
             style="fill:#326666;fill-opacity:1;fill-rule:evenodd;stroke:none;stroke-width:1px;stroke-linecap:butt;stroke-linejoin:miter;stroke-opacity:1" /><path
             style="fill:#acacac;fill-opacity:1"
             id="path18152"
             d="m 324.62,347.66 c 2.02,-2.71 3.45,-5.81 4.54,-8.99 3.51,5.91 7.26,11.67 10.9,17.5 -5.52,-2.11 -10.64,-5.08 -15.44,-8.51 z"
             inkscape:connector-curvature="0" /><path
             sodipodi:nodetypes="ccccccccccccccc"
             inkscape:connector-curvature="0"
             style="fill:#acacac;fill-opacity:1"
             id="path18166"
             d="m 313.37,355.66 c 2.58,-1.04 5.06,-2.37 7.29,-4.03 1.16,1.76 2.33,3.52 3.41,5.34 9.8,17.25 19.92,34.32 29.68,51.6 0.83,-0.05 2.51,-0.16 3.35,-0.22 -1.02,0.23 -2.03,0.48 -3.03,0.74 18.13,31.02 35.8,62.29 54.04,93.24 6.12,-3.58 7.11932,-6.18644 12.90932,-10.27644 0.81,1.28 1.64,2.55 2.47,3.84 -29.11,16.51 -54.23932,30.09644 -84.47932,44.40644 -0.05,-4.03 -0.08,-8.05 0.02,-12.08 21.56,-3.39 42.25,-11.14 61.45,-21.38 -7.84,-14.73 -16.62,-28.94 -24.82,-43.48 -10.16,-17.52 -20.25,-35.08 -30.37,-52.62 -10.8,-18.27 -21.14,-36.8 -31.92,-55.08 z" /><path
             style="fill:#515151;fill-opacity:1"
             id="path18130"
             d="m 287.01,312.12 c 10.05,-9.64 27.78,-8.49 36.76,2.06 5.85,6.54 7.87,16.08 5.39,24.49 -1.09,3.18 -2.52,6.28 -4.54,8.99 -1.25,1.39 -2.57,2.72 -3.96,3.97 -2.23,1.66 -4.71,2.99 -7.29,4.03 -1.52,0.51 -3.07,0.94 -4.62,1.31 -2.86,0.26 -5.73,0.28 -8.58,0.02 -1.73,-0.35 -3.43,-0.81 -5.1,-1.32 -2.66,-1.14 -5.16,-2.64 -7.41,-4.45 -1.23,-1.1 -2.42,-2.24 -3.54,-3.45 -2.07,-2.64 -3.56,-5.69 -4.59,-8.87 -2.71,-9.43 -0.06,-20.3 7.48,-26.78 z"
             inkscape:connector-curvature="0" /><path
             sodipodi:nodetypes="ccccccccccc"
             style="fill:#acacac;fill-opacity:1"
             id="path18172"
             d="m 300.17,356.99 c 2.85,0.26 5.72,0.24 8.58,-0.02 -0.22,20.46 -0.13,40.91 -0.08,61.37 0.08,19.94 0.66825,44.38208 0.87825,64.32208 -2.97075,0.89709 -5.79882,-2.55348 -6.28825,7.18792 0.1,2.02 -1.41,3.47 -2.74,4.77 -0.8,-5.85 -0.28,-11.75 -0.36,-17.63 -0.11,-18.85 0.03,-37.7 -0.08,-56.55 -0.56,0.07 -1.67,0.21 -2.23,0.29 0.56,-0.2 1.67,-0.59 2.23,-0.78 0.15,-20.99 -0.04,-41.97 0.09,-62.96 z"
             inkscape:connector-curvature="0" /><path
             sodipodi:nodetypes="ccccccccc"
             inkscape:connector-curvature="0"
             style="fill:#acacac;fill-opacity:1"
             id="path18180"
             d="m 369.52,364.99 c 5.85,1.79 10.79,5.5 16.09,8.43 9.16,5.16 18.19,10.56 27.36,15.71 19.38114,10.25958 41.10178,24.49316 59.62,34.09 -0.05,3.43 -0.03,6.85 0.04,10.28 -20.44,-11.89 -40.93,-23.69 -61.4,-35.53 -10.6,-6.02 -21.05,-12.33 -31.79,-18.1 l 0.35,1.32 c -3.52,-5.34 -6.92,-10.76 -10.27,-16.2 z" /><path
             id="path18184"
             d="m 99.16,369.11 c 0.88,-0.59 1.79,-1.14 2.72,-1.65 0.43,0.64 1.3,1.91 1.73,2.55 -0.53,0.94 -1.05,1.88 -1.57,2.83 2.19,0.01 4.39,0.04 6.59,0.08 0.62,1.66 0.68,4.13 2.73,4.67 2.65,0.71 5.42,0.04 8.1,-0.12 -2.25,2.22 -4.84,4.24 -8.06,4.72 -0.28,-0.04 -0.82,-0.12 -1.09,-0.16 -1.87,-2.24 -4.62,-2.51 -7.35,-2.23 0.05,2.04 0.1,4.09 0.15,6.14 0.96,0.96 1.93,1.92 2.89,2.89 -0.18,0.48 -0.55,1.43 -0.74,1.9 5.28,6.97 11.63,13.02 18.2,18.76 0.4,3.13 0.85,6.26 1.42,9.38 -1.55,-0.97 -3.05,-2 -4.54,-3.05 -1.82,1.41 -3.81,2.73 -6.24,2.48 -0.26,-3.73 -0.57,-7.59 -2.55,-10.87 -3.66,-6.4 -6.27,-13.3 -9.42,-19.94 0.39,10.43 3.17,20.58 3.96,30.98 -1.53,-0.83 -2.99,-1.77 -4.44,-2.71 -1.51,0.95 -2.96,2.09 -4.7,2.58 -1.46,-0.08 -2.7,-0.91 -4,-1.46 1.63,-9.71 6.2,-18.66 7.32,-28.48 -3.37,5.04 -5.73,10.69 -9.33,15.59 -1.49,2.25 -3.4,4.34 -4.17,6.98 -0.47,2.55 -0.21,5.15 -0.03,7.72 -1.67,-0.88 -3.27,-1.87 -4.86,-2.88 -1.86,1.43 -3.88,2.92 -6.36,2.68 1.19,-3.67 0.85,-8.3 4.15,-10.88 4.62,-4.16 9.74,-7.95 13.16,-13.24 -5.48,3.28 -10.29,7.57 -15.88,10.69 -2.49,1.68 -5.81,2.88 -6.84,5.99 -0.84,2.08 -1.34,4.28 -1.96,6.44 l -0.1,0.3 c -0.46,0.09 -1.39,0.26 -1.85,0.34 -1.63,0.23 -3.27,0.36 -4.91,0.48 1.9,-3.54 3.49,-7.26 5.63,-10.66 6.84,-3.61 14.03,-6.71 20.25,-11.42 4.51,-3.19 8.75,-6.76 12.63,-10.69 0.31,-5.59 0.5,-11.22 -0.64,-16.73 z"
             inkscape:connector-curvature="0"
             style="fill:#336667" /><path
             style="fill:#acacac;fill-opacity:1"
             id="path18190"
             d="m 102.96,379.8 c 2.73,-0.28 5.48,-0.01 7.35,2.23 0.27,0.04 0.81,0.12 1.09,0.16 0.49,4.61 2.41,8.93 2.63,13.58 -2.08,-1.57 -4.06,-3.27 -6.03,-4.97 -0.67,-0.65 -1.34,-1.31 -2,-1.97 -0.96,-0.97 -1.93,-1.93 -2.89,-2.89 -0.05,-2.05 -0.1,-4.1 -0.15,-6.14 z"
             inkscape:connector-curvature="0" /><path
             id="path18202"
             d="m 102.13,387.49 c 3.15,6.64 5.76,13.54 9.42,19.94 1.98,3.28 2.29,7.14 2.55,10.87 -1.08,-0.74 -2.13,-1.51 -3.18,-2.28 -1.59,0.86 -3.18,1.7 -4.83,2.45 -0.79,-10.4 -3.57,-20.55 -3.96,-30.98 z"
             inkscape:connector-curvature="0"
             style="fill:#66999a" /><path
             id="path18204"
             d="m 90.94,403.99 c 3.6,-4.9 5.96,-10.55 9.33,-15.59 -1.12,9.82 -5.69,18.77 -7.32,28.48 -0.34,-0.15 -1.01,-0.46 -1.35,-0.62 -1.63,0.8 -3.22,1.66 -4.86,2.43 -0.18,-2.57 -0.44,-5.17 0.03,-7.72 0.77,-2.64 2.68,-4.73 4.17,-6.98 z"
             inkscape:connector-curvature="0"
             style="fill:#67999a" /><path
             id="path18206"
             d="m 106,388.83 c 0.66,0.66 1.33,1.32 2,1.97 l -1.45,-0.1 c 6.18,6.92 14.18,11.76 21.69,17.05 2.61,1.71 1.9,5.27 2.57,7.92 -1.94,1.13 -3.87,2.28 -5.93,3.2 -0.57,-3.12 -1.02,-6.25 -1.42,-9.38 -6.57,-5.74 -12.92,-11.79 -18.2,-18.76 0.19,-0.47 0.56,-1.42 0.74,-1.9 z"
             inkscape:connector-curvature="0"
             style="fill:#66999a" /><path
             id="path18214"
             d="m 106.55,390.7 1.45,0.1 c 1.97,1.7 3.95,3.4 6.03,4.97 6.56,5.42 14.49,8.61 22.1,12.15 1.61,3.25 2.67,6.74 4.18,10.04 -2.25,-0.12 -4.49,-0.11 -6.73,0.03 -0.94,-0.75 -1.88,-1.52 -2.77,-2.32 -0.67,-2.65 0.04,-6.21 -2.57,-7.92 -7.51,-5.29 -15.51,-10.13 -21.69,-17.05 z"
             inkscape:connector-curvature="0"
             style="fill:#336767" /><path
             id="path18222"
             d="m 76.95,405.06 c 5.59,-3.12 10.4,-7.41 15.88,-10.69 -3.42,5.29 -8.54,9.08 -13.16,13.24 -3.3,2.58 -2.96,7.21 -4.15,10.88 -1.23,-0.88 -2.42,-1.79 -3.61,-2.7 -1.26,0.55 -2.52,1.1 -3.76,1.7 0.62,-2.16 1.12,-4.36 1.96,-6.44 1.03,-3.11 4.35,-4.31 6.84,-5.99 z"
             inkscape:connector-curvature="0"
             style="fill:#65999a" /><path
             id="path18234"
             d="m 68.15,417.49 c 1.24,-0.6 2.5,-1.15 3.76,-1.7 1.19,0.91 2.38,1.82 3.61,2.7 2.48,0.24 4.5,-1.25 6.36,-2.68 1.59,1.01 3.19,2 4.86,2.88 1.64,-0.77 3.23,-1.63 4.86,-2.43 0.34,0.16 1.01,0.47 1.35,0.62 1.3,0.55 2.54,1.38 4,1.46 1.74,-0.49 3.19,-1.63 4.7,-2.58 1.45,0.94 2.91,1.88 4.44,2.71 1.65,-0.75 3.24,-1.59 4.83,-2.45 1.05,0.77 2.1,1.54 3.18,2.28 2.43,0.25 4.42,-1.07 6.24,-2.48 1.49,1.05 2.99,2.08 4.54,3.05 2.06,-0.92 3.99,-2.07 5.93,-3.2 0.89,0.8 1.83,1.57 2.77,2.32 0.12,8.8 0.07,17.6 0.03,26.4 -0.89,-0.04 -2.67,-0.12 -3.57,-0.16 -2.06,-0.1 -4.13,-0.14 -6.2,-0.14 -3.39,0.01 -6.78,0.03 -10.17,-0.01 -2.82,-0.03 -5.64,-0.03 -8.46,0 -4.1,0.03 -8.2,0.02 -12.31,0 -2.49,-0.01 -4.98,-0.02 -7.48,0.01 -3.47,0.02 -6.94,0.03 -10.41,0.02 -2.4,-0.02 -4.79,-0.02 -7.19,-0.01 0.57,-8.76 0.22,-17.54 0.23,-26.31 l 0.1,-0.3 z"
             inkscape:connector-curvature="0"
             style="fill:#fefefe" /><path
             id="path18240"
             d="m 66.2,418.13 c 0.46,-0.08 1.39,-0.25 1.85,-0.34 -0.01,8.77 0.34,17.55 -0.23,26.31 -0.57,6.02 0.73,11.97 1.19,17.95 0.34,3.21 0.45,6.48 1.36,9.61 5.39,3.26 11.47,5.23 16.93,8.39 l 1.02,1.36 c -4.21,-1.63 -8.38,-3.33 -12.57,-5.01 -3.06,-1.23 -6.13,-2.44 -9.18,-3.7 -0.46,-9.16 -1.38,-18.28 -1.66,-27.45 0.63,-1.34 1.29,-2.72 1.24,-4.24 0.13,-7.62 -0.15,-15.25 0.05,-22.88 z"
             inkscape:connector-curvature="0"
             style="fill:#2d5a5d" /><path
             id="path18242"
             d="m 133.58,417.99 c 2.24,-0.14 4.48,-0.15 6.73,-0.03 -1.76,0.26 -3.53,0.44 -5.3,0.63 l 0.14,1.09 c 0.15,8.22 -0.09,16.45 0.08,24.68 -1.72,0.25 -3.42,0.59 -5.14,0.86 l -0.05,-0.99 c 0.9,0.04 2.68,0.12 3.57,0.16 0.04,-8.8 0.09,-17.6 -0.03,-26.4 z"
             inkscape:connector-curvature="0"
             style="fill:#023234" /><path
             id="path18250"
             d="m 67.82,444.1 c 2.4,-0.01 4.79,-0.01 7.19,0.01 0.76,7.95 0.93,15.94 1.39,23.91 0.22,1.09 -0.1,2.6 1.04,3.28 5.22,3.97 11.27,6.76 16.26,11.06 -2.15,-0.72 -4.29,-1.46 -6.4,-2.31 -5.46,-3.16 -11.54,-5.13 -16.93,-8.39 -0.91,-3.13 -1.02,-6.4 -1.36,-9.61 -0.46,-5.98 -1.76,-11.93 -1.19,-17.95 z"
             inkscape:connector-curvature="0"
             style="fill:#67999a" /><path
             id="path18252"
             d="m 75.01,444.11 c 3.47,0.01 6.94,0 10.41,-0.02 0.73,8.86 -0.39,17.89 0.99,26.67 4.08,5.15 8.92,9.71 13.62,14.31 -1.81,-5.49 -5.39,-10.31 -6.58,-15.99 -0.43,-8.32 -0.23,-16.67 -0.55,-25 4.11,0.02 8.21,0.03 12.31,0 -0.18,7.3 -0.48,14.59 -0.54,21.89 0.15,6.65 -2.69,12.8 -3.7,19.28 3.7,-4.71 7.71,-9.26 10.77,-14.4 1.72,-8.78 1.12,-17.87 1.93,-26.77 3.39,0.04 6.78,0.02 10.17,0.01 -0.78,9.08 -0.55,18.2 -1.27,27.28 -5.12,3.63 -10.59,6.83 -15.27,11.05 7.51,-2.93 14.3,-7.35 21.59,-10.72 0.51,-8.82 1.08,-17.65 1.2,-26.48 1.72,-0.27 3.42,-0.61 5.14,-0.86 0.43,-0.05 1.29,-0.14 1.72,-0.19 -0.4,9.55 -1.52,19.06 -2.16,28.6 -2,0.82 -4,1.64 -6,2.46 -7.68,3.07 -15.33,6.21 -22.96,9.4 -2.11,0.7 -4.36,2.06 -6.6,1.13 -3.74,-1.16 -7.36,-2.69 -10.91,-4.35 l -1.02,-1.36 c 2.11,0.85 4.25,1.59 6.4,2.31 -4.99,-4.3 -11.04,-7.09 -16.26,-11.06 -1.14,-0.68 -0.82,-2.19 -1.04,-3.28 -0.46,-7.97 -0.63,-15.96 -1.39,-23.91 z"
             inkscape:connector-curvature="0"
             style="fill:#336667" /><path
             id="path18254"
             d="m 85.42,444.09 c 2.5,-0.03 4.99,-0.02 7.48,-0.01 0.32,8.33 0.12,16.68 0.55,25 1.19,5.68 4.77,10.5 6.58,15.99 -4.7,-4.6 -9.54,-9.16 -13.62,-14.31 -1.38,-8.78 -0.26,-17.81 -0.99,-26.67 z"
             inkscape:connector-curvature="0"
             style="fill:#66999a" /><path
             id="path18256"
             d="m 105.21,444.08 c 2.82,-0.03 5.64,-0.03 8.46,0 -0.81,8.9 -0.21,17.99 -1.93,26.77 -3.06,5.14 -7.07,9.69 -10.77,14.4 1.01,-6.48 3.85,-12.63 3.7,-19.28 0.06,-7.3 0.36,-14.59 0.54,-21.89 z"
             inkscape:connector-curvature="0"
             style="fill:#66999a" /><path
             id="path18258"
             d="m 123.84,444.09 c 2.07,0 4.14,0.04 6.2,0.14 l 0.05,0.99 c -0.12,8.83 -0.69,17.66 -1.2,26.48 -7.29,3.37 -14.08,7.79 -21.59,10.72 4.68,-4.22 10.15,-7.42 15.27,-11.05 0.72,-9.08 0.49,-18.2 1.27,-27.28 z"
             inkscape:connector-curvature="0"
             style="fill:#66999a" /><path
             id="path18294"
             d="m 284.98,508.1 c 4.69,-2.92 8.73,-6.73 13.4,-9.68 -4.22,5.71 -9.69,10.31 -15,14.96 -3.35,2.62 -3.28,7.27 -4.32,11.04 -1.3,-0.88 -2.56,-1.81 -3.82,-2.73 -1.11,0.55 -2.22,1.09 -3.33,1.64 -0.3,8.86 -0.23,17.73 -0.06,26.6 2.28,-0.02 4.55,-0.02 6.83,-0.01 0.7,8.94 0.93,17.9 1.47,26.85 5.76,4.2 12.49,7.16 17.69,12.06 -8.24,-3.37 -16.11,-7.73 -24.29,-11.29 -0.42,-9.39 -2.3,-18.67 -2.38,-28.07 0.39,-8.5 0.08,-17.0099 0.17,-25.5099 0.85,-3.14 1.64,-6.43 3.52,-9.12 3.06,-2.6801 6.8,-4.4101 10.12,-6.7401 z"
             inkscape:connector-curvature="0"
             style="fill:#669a9a" /><path
             d="m 99.16,369.11 c 0.88,-0.59 1.79,-1.14 2.72,-1.65 0.43,0.64 1.3,1.91 1.73,2.55 -0.53,0.94 -1.05,1.88 -1.57,2.83 2.19,0.01 4.39,0.04 6.59,0.08 0.62,1.66 0.68,4.13 2.73,4.67 2.65,0.71 5.42,0.04 8.1,-0.12 -2.25,2.22 -4.84,4.24 -8.06,4.72 -0.28,-0.04 -0.82,-0.12 -1.09,-0.16 -1.87,-2.24 -4.62,-2.51 -7.35,-2.23 0.05,2.04 0.1,4.09 0.15,6.14 0.96,0.96 1.93,1.92 2.89,2.89 -0.18,0.48 -0.55,1.43 -0.74,1.9 5.28,6.97 11.63,13.02 18.2,18.76 0.4,3.13 0.85,6.26 1.42,9.38 -1.55,-0.97 -3.05,-2 -4.54,-3.05 -1.82,1.41 -3.81,2.73 -6.24,2.48 -0.26,-3.73 -0.57,-7.59 -2.55,-10.87 -3.66,-6.4 -6.27,-13.3 -9.42,-19.94 0.39,10.43 3.17,20.58 3.96,30.98 -1.53,-0.83 -2.99,-1.77 -4.44,-2.71 -1.51,0.95 -2.96,2.09 -4.7,2.58 -1.46,-0.08 -2.7,-0.91 -4,-1.46 1.63,-9.71 6.2,-18.66 7.32,-28.48 -3.37,5.04 -5.73,10.69 -9.33,15.59 -1.49,2.25 -3.4,4.34 -4.17,6.98 -0.47,2.55 -0.21,5.15 -0.03,7.72 -1.67,-0.88 -3.27,-1.87 -4.86,-2.88 -1.86,1.43 -3.88,2.92 -6.36,2.68 1.19,-3.67 0.85,-8.3 4.15,-10.88 4.62,-4.16 9.74,-7.95 13.16,-13.24 -5.48,3.28 -10.29,7.57 -15.88,10.69 -2.49,1.68 -5.81,2.88 -6.84,5.99 -0.84,2.08 -1.34,4.28 -1.96,6.44 l -0.1,0.3 c -0.46,0.09 -1.39,0.26 -1.85,0.34 -1.63,0.23 -3.27,0.36 -4.91,0.48 1.9,-3.54 3.49,-7.26 5.63,-10.66 6.84,-3.61 14.03,-6.71 20.25,-11.42 4.51,-3.19 8.75,-6.76 12.63,-10.69 0.31,-5.59 0.5,-11.22 -0.64,-16.73 z"
             id="path18931"
             inkscape:connector-curvature="0"
             style="fill:#336667" /><path
             d="m 102.96,379.8 c 2.73,-0.28 5.48,-0.01 7.35,2.23 0.27,0.04 0.81,0.12 1.09,0.16 0.49,4.61 2.41,8.93 2.63,13.58 -2.08,-1.57 -4.06,-3.27 -6.03,-4.97 -0.67,-0.65 -1.34,-1.31 -2,-1.97 -0.96,-0.97 -1.93,-1.93 -2.89,-2.89 -0.05,-2.05 -0.1,-4.1 -0.15,-6.14 z"
             id="path18933"
             style="fill:#acacac;fill-opacity:1"
             inkscape:connector-curvature="0" /><path
             d="m 102.13,387.49 c 3.15,6.64 5.76,13.54 9.42,19.94 1.98,3.28 2.29,7.14 2.55,10.87 -1.08,-0.74 -2.13,-1.51 -3.18,-2.28 -1.59,0.86 -3.18,1.7 -4.83,2.45 -0.79,-10.4 -3.57,-20.55 -3.96,-30.98 z"
             id="path18935"
             inkscape:connector-curvature="0"
             style="fill:#66999a" /><path
             d="m 90.94,403.99 c 3.6,-4.9 5.96,-10.55 9.33,-15.59 -1.12,9.82 -5.69,18.77 -7.32,28.48 -0.34,-0.15 -1.01,-0.46 -1.35,-0.62 -1.63,0.8 -3.22,1.66 -4.86,2.43 -0.18,-2.57 -0.44,-5.17 0.03,-7.72 0.77,-2.64 2.68,-4.73 4.17,-6.98 z"
             id="path18937"
             inkscape:connector-curvature="0"
             style="fill:#67999a" /><path
             d="m 106,388.83 c 0.66,0.66 1.33,1.32 2,1.97 l -1.45,-0.1 c 6.18,6.92 14.18,11.76 21.69,17.05 2.61,1.71 1.9,5.27 2.57,7.92 -1.94,1.13 -3.87,2.28 -5.93,3.2 -0.57,-3.12 -1.02,-6.25 -1.42,-9.38 -6.57,-5.74 -12.92,-11.79 -18.2,-18.76 0.19,-0.47 0.56,-1.42 0.74,-1.9 z"
             id="path18939"
             inkscape:connector-curvature="0"
             style="fill:#66999a" /><path
             sodipodi:nodetypes="ccccccccc"
             d="m 103.9905,387.62454 1.45,0.1 c 1.97,1.7 6.5095,6.47546 8.5895,8.04546 6.56,5.42 14.49,8.61 22.1,12.15 1.61,3.25 2.67,6.74 4.18,10.04 -2.25,-0.12 -4.49,-0.11 -6.73,0.03 -0.94,-0.75 -1.88,-1.52 -2.77,-2.32 -0.67,-2.65 0.04,-6.21 -2.57,-7.92 -7.51,-5.29 -18.0695,-13.20546 -24.2495,-20.12546 z"
             id="path18941"
             inkscape:connector-curvature="0"
             style="fill:#336767" /><path
             d="m 76.95,405.06 c 5.59,-3.12 10.4,-7.41 15.88,-10.69 -3.42,5.29 -8.54,9.08 -13.16,13.24 -3.3,2.58 -2.96,7.21 -4.15,10.88 -1.23,-0.88 -2.42,-1.79 -3.61,-2.7 -1.26,0.55 -2.52,1.1 -3.76,1.7 0.62,-2.16 1.12,-4.36 1.96,-6.44 1.03,-3.11 4.35,-4.31 6.84,-5.99 z"
             id="path18943"
             inkscape:connector-curvature="0"
             style="fill:#65999a" /><path
             d="m 68.15,417.49 c 1.24,-0.6 2.5,-1.15 3.76,-1.7 1.19,0.91 2.38,1.82 3.61,2.7 2.48,0.24 4.5,-1.25 6.36,-2.68 1.59,1.01 3.19,2 4.86,2.88 1.64,-0.77 3.23,-1.63 4.86,-2.43 0.34,0.16 1.01,0.47 1.35,0.62 1.3,0.55 2.54,1.38 4,1.46 1.74,-0.49 3.19,-1.63 4.7,-2.58 1.45,0.94 2.91,1.88 4.44,2.71 1.65,-0.75 3.24,-1.59 4.83,-2.45 1.05,0.77 2.1,1.54 3.18,2.28 2.43,0.25 4.42,-1.07 6.24,-2.48 1.49,1.05 2.99,2.08 4.54,3.05 2.06,-0.92 3.99,-2.07 5.93,-3.2 0.89,0.8 1.83,1.57 2.77,2.32 0.12,8.8 0.07,17.6 0.03,26.4 -0.89,-0.04 -2.67,-0.12 -3.57,-0.16 -2.06,-0.1 -4.13,-0.14 -6.2,-0.14 -3.39,0.01 -6.78,0.03 -10.17,-0.01 -2.82,-0.03 -5.64,-0.03 -8.46,0 -4.1,0.03 -8.2,0.02 -12.31,0 -2.49,-0.01 -4.98,-0.02 -7.48,0.01 -3.47,0.02 -6.94,0.03 -10.41,0.02 -2.4,-0.02 -4.79,-0.02 -7.19,-0.01 0.57,-8.76 0.22,-17.54 0.23,-26.31 l 0.1,-0.3 z"
             id="path18945"
             inkscape:connector-curvature="0"
             style="fill:#fefefe" /><path
             d="m 66.2,418.13 c 0.46,-0.08 1.39,-0.25 1.85,-0.34 -0.01,8.77 0.34,17.55 -0.23,26.31 -0.57,6.02 0.73,11.97 1.19,17.95 0.34,3.21 0.45,6.48 1.36,9.61 5.39,3.26 11.47,5.23 16.93,8.39 l 1.02,1.36 c -4.21,-1.63 -8.38,-3.33 -12.57,-5.01 -3.06,-1.23 -6.13,-2.44 -9.18,-3.7 -0.46,-9.16 -1.38,-18.28 -1.66,-27.45 0.63,-1.34 1.29,-2.72 1.24,-4.24 0.13,-7.62 -0.15,-15.25 0.05,-22.88 z"
             id="path18947"
             inkscape:connector-curvature="0"
             style="fill:#2d5a5d" /><path
             d="m 133.58,417.99 c 2.24,-0.14 4.48,-0.15 6.73,-0.03 -1.76,0.26 -3.53,0.44 -5.3,0.63 l 0.14,1.09 c 0.15,8.22 -0.09,16.45 0.08,24.68 -1.72,0.25 -3.42,0.59 -5.14,0.86 l -0.05,-0.99 c 0.9,0.04 2.68,0.12 3.57,0.16 0.04,-8.8 0.09,-17.6 -0.03,-26.4 z"
             id="path18949"
             inkscape:connector-curvature="0"
             style="fill:#336667;fill-opacity:1" /><path
             d="m 67.82,444.1 c 2.4,-0.01 4.79,-0.01 7.19,0.01 0.76,7.95 0.93,15.94 1.39,23.91 0.22,1.09 -0.1,2.6 1.04,3.28 5.22,3.97 11.27,6.76 16.26,11.06 -2.15,-0.72 -4.29,-1.46 -6.4,-2.31 -5.46,-3.16 -11.54,-5.13 -16.93,-8.39 -0.91,-3.13 -1.02,-6.4 -1.36,-9.61 -0.46,-5.98 -1.76,-11.93 -1.19,-17.95 z"
             id="path18951"
             inkscape:connector-curvature="0"
             style="fill:#67999a" /><path
             d="m 75.01,444.11 c 3.47,0.01 6.94,0 10.41,-0.02 0.73,8.86 -0.39,17.89 0.99,26.67 4.08,5.15 8.92,9.71 13.62,14.31 -1.81,-5.49 -5.39,-10.31 -6.58,-15.99 -0.43,-8.32 -0.23,-16.67 -0.55,-25 4.11,0.02 8.21,0.03 12.31,0 -0.18,7.3 -0.48,14.59 -0.54,21.89 0.15,6.65 -2.69,12.8 -3.7,19.28 3.7,-4.71 7.71,-9.26 10.77,-14.4 1.72,-8.78 1.12,-17.87 1.93,-26.77 3.39,0.04 6.78,0.02 10.17,0.01 -0.78,9.08 -0.55,18.2 -1.27,27.28 -5.12,3.63 -10.59,6.83 -15.27,11.05 7.51,-2.93 14.3,-7.35 21.59,-10.72 0.51,-8.82 1.08,-17.65 1.2,-26.48 1.72,-0.27 3.42,-0.61 5.14,-0.86 0.43,-0.05 1.29,-0.14 1.72,-0.19 -0.4,9.55 -1.52,19.06 -2.16,28.6 -2,0.82 -4,1.64 -6,2.46 -7.68,3.07 -15.33,6.21 -22.96,9.4 -2.11,0.7 -4.36,2.06 -6.6,1.13 -3.74,-1.16 -7.36,-2.69 -10.91,-4.35 l -1.02,-1.36 c 2.11,0.85 4.25,1.59 6.4,2.31 -4.99,-4.3 -11.04,-7.09 -16.26,-11.06 -1.14,-0.68 -0.82,-2.19 -1.04,-3.28 -0.46,-7.97 -0.63,-15.96 -1.39,-23.91 z"
             id="path18953"
             inkscape:connector-curvature="0"
             style="fill:#336667" /><path
             d="m 85.42,444.09 c 2.5,-0.03 4.99,-0.02 7.48,-0.01 0.32,8.33 0.12,16.68 0.55,25 1.19,5.68 4.77,10.5 6.58,15.99 -4.7,-4.6 -9.54,-9.16 -13.62,-14.31 -1.38,-8.78 -0.26,-17.81 -0.99,-26.67 z"
             id="path18955"
             inkscape:connector-curvature="0"
             style="fill:#66999a" /><path
             d="m 105.21,444.08 c 2.82,-0.03 5.64,-0.03 8.46,0 -0.81,8.9 -0.21,17.99 -1.93,26.77 -3.06,5.14 -7.07,9.69 -10.77,14.4 1.01,-6.48 3.85,-12.63 3.7,-19.28 0.06,-7.3 0.36,-14.59 0.54,-21.89 z"
             id="path18957"
             inkscape:connector-curvature="0"
             style="fill:#66999a" /><path
             d="m 123.84,444.09 c 2.07,0 4.14,0.04 6.2,0.14 l 0.05,0.99 c -0.12,8.83 -0.69,17.66 -1.2,26.48 -7.29,3.37 -14.08,7.79 -21.59,10.72 4.68,-4.22 10.15,-7.42 15.27,-11.05 0.72,-9.08 0.49,-18.2 1.27,-27.28 z"
             id="path18959"
             inkscape:connector-curvature="0"
             style="fill:#66999a" /><path
             style="fill:#336667"
             inkscape:connector-curvature="0"
             d="m 303.1982,475.063 c 0.88,-0.59 1.79,-1.14 2.72,-1.65 0.43,0.64 1.3,1.91 1.73,2.55 -0.53,0.94 -1.05,1.88 -1.57,2.83 2.19,0.01 4.39,0.04 6.59,0.08 0.62,1.66 0.68,4.13 2.73,4.67 2.65,0.71 5.42,0.04 8.1,-0.12 -2.25,2.22 -4.84,4.24 -8.06,4.72 -0.28,-0.04 -0.82,-0.12 -1.09,-0.16 -1.87,-2.24 -4.62,-2.51 -7.35,-2.23 0.05,2.04 0.1,4.09 0.15,6.14 0.96,0.96 1.93,1.92 2.89,2.89 -0.18,0.48 -0.55,1.43 -0.74,1.9 5.28,6.97 11.63,13.02 18.2,18.76 0.4,3.13 0.85,6.26 1.42,9.38 -1.55,-0.97 -3.05,-2 -4.54,-3.05 -1.82,1.41 -3.81,2.73 -6.24,2.48 -0.26,-3.73 -0.57,-7.59 -2.55,-10.87 -3.66,-6.4 -6.27,-13.3 -9.42,-19.94 0.39,10.43 3.17,20.58 3.96,30.98 -1.53,-0.83 -2.99,-1.77 -4.44,-2.71 -1.51,0.95 -2.96,2.09 -4.7,2.58 -1.46,-0.08 -2.7,-0.91 -4,-1.46 1.63,-9.71 6.2,-18.66 7.32,-28.48 -3.37,5.04 -5.73,10.69 -9.33,15.59 -1.49,2.25 -3.4,4.34 -4.17,6.98 -0.47,2.55 -0.21,5.15 -0.03,7.72 -1.67,-0.88 -3.27,-1.87 -4.86,-2.88 -1.86,1.43 -3.88,2.92 -6.36,2.68 1.19,-3.67 0.85,-8.3 4.15,-10.88 4.62,-4.16 9.74,-7.95 13.16,-13.24 -5.48,3.28 -10.29,7.57 -15.88,10.69 -2.49,1.68 -5.81,2.88 -6.84,5.99 -0.84,2.08 -1.34,4.28 -1.96,6.44 l -0.1,0.3 c -0.46,0.09 -1.39,0.26 -1.85,0.34 -1.63,0.23 -3.27,0.36 -4.91,0.48 1.9,-3.54 3.49,-7.26 5.63,-10.66 6.84,-3.61 14.03,-6.71 20.25,-11.42 4.51,-3.19 8.75,-6.76 12.63,-10.69 0.31,-5.59 0.5,-11.22 -0.64,-16.73 z"
             id="path18961" /><path
             sodipodi:nodetypes="ccccccc"
             inkscape:connector-curvature="0"
             d="m 303.79883,482.67754 c 2.73,-0.28 3.66444,-2.82178 5.53444,-0.58178 1.28478,6.11476 0.23436,21.04921 3.35689,25.27799 -2.08,-1.57 -1.88133,-11.99621 -3.85133,-13.69621 -0.67,-0.65 -1.34,-1.31 -2,-1.97 -0.96,-0.97 -1.93,-1.93 -2.89,-2.89 -0.05,-2.05 -0.1,-4.1 -0.15,-6.14 z"
             id="path18963"
             style="fill:#acacac;fill-opacity:1" /><path
             style="fill:#66999a"
             inkscape:connector-curvature="0"
             d="m 306.1682,493.443 c 3.15,6.64 5.76,13.54 9.42,19.94 1.98,3.28 2.29,7.14 2.55,10.87 -1.08,-0.74 -2.13,-1.51 -3.18,-2.28 -1.59,0.86 -3.18,1.7 -4.83,2.45 -0.79,-10.4 -3.57,-20.55 -3.96,-30.98 z"
             id="path18965" /><path
             style="fill:#67999a"
             inkscape:connector-curvature="0"
             d="m 294.9782,509.943 c 3.6,-4.9 5.96,-10.55 9.33,-15.59 -1.12,9.82 -5.69,18.77 -7.32,28.48 -0.34,-0.15 -1.01,-0.46 -1.35,-0.62 -1.63,0.8 -3.22,1.66 -4.86,2.43 -0.18,-2.57 -0.44,-5.17 0.03,-7.72 0.77,-2.64 2.68,-4.73 4.17,-6.98 z"
             id="path18967" /><path
             style="fill:#66999a"
             inkscape:connector-curvature="0"
             d="m 310.0382,494.783 c 0.66,0.66 1.33,1.32 2,1.97 l -1.45,-0.1 c 6.18,6.92 14.18,11.76 21.69,17.05 2.61,1.71 1.9,5.27 2.57,7.92 -1.94,1.13 -3.87,2.28 -5.93,3.2 -0.57,-3.12 -1.02,-6.25 -1.42,-9.38 -6.57,-5.74 -12.92,-11.79 -18.2,-18.76 0.19,-0.47 0.56,-1.42 0.74,-1.9 z"
             id="path18969" /><path
             style="fill:#336767"
             inkscape:connector-curvature="0"
             d="m 310.5882,496.653 1.45,0.1 c 1.97,1.7 3.95,3.4 6.03,4.97 6.56,5.42 14.49,8.61 22.1,12.15 1.61,3.25 2.67,6.74 4.18,10.04 -2.25,-0.12 -4.49,-0.11 -6.73,0.03 -0.94,-0.75 -1.88,-1.52 -2.77,-2.32 -0.67,-2.65 0.04,-6.21 -2.57,-7.92 -7.51,-5.29 -15.51,-10.13 -21.69,-17.05 z"
             id="path18971" /><path
             style="fill:#65999a"
             inkscape:connector-curvature="0"
             d="m 280.9882,511.013 c 5.59,-3.12 10.4,-7.41 15.88,-10.69 -3.42,5.29 -8.54,9.08 -13.16,13.24 -3.3,2.58 -2.96,7.21 -4.15,10.88 -1.23,-0.88 -2.42,-1.79 -3.61,-2.7 -1.26,0.55 -2.52,1.1 -3.76,1.7 0.62,-2.16 1.12,-4.36 1.96,-6.44 1.03,-3.11 4.35,-4.31 6.84,-5.99 z"
             id="path18973" /><path
             style="fill:#fefefe"
             inkscape:connector-curvature="0"
             d="m 272.1882,523.443 c 1.24,-0.6 2.5,-1.15 3.76,-1.7 1.19,0.91 2.38,1.82 3.61,2.7 2.48,0.24 4.5,-1.25 6.36,-2.68 1.59,1.01 3.19,2 4.86,2.88 1.64,-0.77 3.23,-1.63 4.86,-2.43 0.34,0.16 1.01,0.47 1.35,0.62 1.3,0.55 2.54,1.38 4,1.46 1.74,-0.49 3.19,-1.63 4.7,-2.58 1.45,0.94 2.91,1.88 4.44,2.71 1.65,-0.75 3.24,-1.59 4.83,-2.45 1.05,0.77 2.1,1.54 3.18,2.28 2.43,0.25 4.42,-1.07 6.24,-2.48 1.49,1.05 2.99,2.08 4.54,3.05 2.06,-0.92 3.99,-2.07 5.93,-3.2 0.89,0.8 1.83,1.57 2.77,2.32 0.12,8.8 0.07,17.6 0.03,26.4 -0.89,-0.04 -2.67,-0.12 -3.57,-0.16 -2.06,-0.1 -4.13,-0.14 -6.2,-0.14 -3.39,0.01 -6.78,0.03 -10.17,-0.01 -2.82,-0.03 -5.64,-0.03 -8.46,0 -4.1,0.03 -8.2,0.02 -12.31,0 -2.49,-0.01 -4.98,-0.02 -7.48,0.01 -3.47,0.02 -6.94,0.03 -10.41,0.02 -2.4,-0.02 -4.79,-0.02 -7.19,-0.01 0.57,-8.76 0.22,-17.54 0.23,-26.31 l 0.1,-0.3 z"
             id="path18975" /><path
             style="fill:#2d5a5d"
             inkscape:connector-curvature="0"
             d="m 270.2382,524.083 c 0.46,-0.08 1.39,-0.25 1.85,-0.34 -0.01,8.77 0.34,17.55 -0.23,26.31 -0.57,6.02 0.73,11.97 1.19,17.95 0.34,3.21 0.45,6.48 1.36,9.61 5.39,3.26 11.47,5.23 16.93,8.39 l 1.02,1.36 c -4.21,-1.63 -8.38,-3.33 -12.57,-5.01 -3.06,-1.23 -6.13,-2.44 -9.18,-3.7 -0.46,-9.16 -1.38,-18.28 -1.66,-27.45 0.63,-1.34 1.29,-2.72 1.24,-4.24 0.13,-7.62 -0.15,-15.25 0.05,-22.88 z"
             id="path18977" /><path
             style="fill:#023234"
             inkscape:connector-curvature="0"
             d="m 337.6182,523.943 c 2.24,-0.14 4.48,-0.15 6.73,-0.03 -1.76,0.26 -3.53,0.44 -5.3,0.63 l 0.14,1.09 c 0.15,8.22 -0.09,16.45 0.08,24.68 -1.72,0.25 -3.42,0.59 -5.14,0.86 l -0.05,-0.99 c 0.9,0.04 2.68,0.12 3.57,0.16 0.04,-8.8 0.09,-17.6 -0.03,-26.4 z"
             id="path18979" /><path
             style="fill:#67999a"
             inkscape:connector-curvature="0"
             d="m 271.8582,550.053 c 2.4,-0.01 4.79,-0.01 7.19,0.01 0.76,7.95 0.93,15.94 1.39,23.91 0.22,1.09 -0.1,2.6 1.04,3.28 5.22,3.97 11.27,6.76 16.26,11.06 -2.15,-0.72 -4.29,-1.46 -6.4,-2.31 -5.46,-3.16 -11.54,-5.13 -16.93,-8.39 -0.91,-3.13 -1.02,-6.4 -1.36,-9.61 -0.46,-5.98 -1.76,-11.93 -1.19,-17.95 z"
             id="path18981" /><path
             style="fill:#336667"
             inkscape:connector-curvature="0"
             d="m 279.0482,550.063 c 3.47,0.01 6.94,0 10.41,-0.02 0.73,8.86 -0.39,17.89 0.99,26.67 4.08,5.15 8.92,9.71 13.62,14.31 -1.81,-5.49 -5.39,-10.31 -6.58,-15.99 -0.43,-8.32 -0.23,-16.67 -0.55,-25 4.11,0.02 8.21,0.03 12.31,0 -0.18,7.3 -0.48,14.59 -0.54,21.89 0.15,6.65 -2.69,12.8 -3.7,19.28 3.7,-4.71 7.71,-9.26 10.77,-14.4 1.72,-8.78 1.12,-17.87 1.93,-26.77 3.39,0.04 6.78,0.02 10.17,0.01 -0.78,9.08 -0.55,18.2 -1.27,27.28 -5.12,3.63 -10.59,6.83 -15.27,11.05 7.51,-2.93 14.3,-7.35 21.59,-10.72 0.51,-8.82 1.08,-17.65 1.2,-26.48 1.72,-0.27 3.42,-0.61 5.14,-0.86 0.43,-0.05 1.29,-0.14 1.72,-0.19 -0.4,9.55 -1.52,19.06 -2.16,28.6 -2,0.82 -4,1.64 -6,2.46 -7.68,3.07 -15.33,6.21 -22.96,9.4 -2.11,0.7 -4.36,2.06 -6.6,1.13 -3.74,-1.16 -7.36,-2.69 -10.91,-4.35 l -1.02,-1.36 c 2.11,0.85 4.25,1.59 6.4,2.31 -4.99,-4.3 -11.04,-7.09 -16.26,-11.06 -1.14,-0.68 -0.82,-2.19 -1.04,-3.28 -0.46,-7.97 -0.63,-15.96 -1.39,-23.91 z"
             id="path18983" /><path
             style="fill:#66999a"
             inkscape:connector-curvature="0"
             d="m 289.4582,550.043 c 2.5,-0.03 4.99,-0.02 7.48,-0.01 0.32,8.33 0.12,16.68 0.55,25 1.19,5.68 4.77,10.5 6.58,15.99 -4.7,-4.6 -9.54,-9.16 -13.62,-14.31 -1.38,-8.78 -0.26,-17.81 -0.99,-26.67 z"
             id="path18985" /><path
             style="fill:#66999a"
             inkscape:connector-curvature="0"
             d="m 309.2482,550.033 c 2.82,-0.03 5.64,-0.03 8.46,0 -0.81,8.9 -0.21,17.99 -1.93,26.77 -3.06,5.14 -7.07,9.69 -10.77,14.4 1.01,-6.48 3.85,-12.63 3.7,-19.28 0.06,-7.3 0.36,-14.59 0.54,-21.89 z"
             id="path18987" /><path
             style="fill:#66999a"
             inkscape:connector-curvature="0"
             d="m 327.8782,550.043 c 2.07,0 4.14,0.04 6.2,0.14 l 0.05,0.99 c -0.12,8.83 -0.69,17.66 -1.2,26.48 -7.29,3.37 -14.08,7.79 -21.59,10.72 4.68,-4.22 10.15,-7.42 15.27,-11.05 0.72,-9.08 0.49,-18.2 1.27,-27.28 z"
             id="path18989" /><path
             style="fill:#336667"
             inkscape:connector-curvature="0"
             id="path18991"
             d="m 303.1982,475.063 c 0.88,-0.59 1.79,-1.14 2.72,-1.65 0.43,0.64 1.3,1.91 1.73,2.55 -0.53,0.94 -1.05,1.88 -1.57,2.83 2.19,0.01 4.39,0.04 6.59,0.08 0.62,1.66 0.68,4.13 2.73,4.67 2.65,0.71 5.42,0.04 8.1,-0.12 -2.25,2.22 -4.84,4.24 -8.06,4.72 -0.28,-0.04 -0.82,-0.12 -1.09,-0.16 -1.87,-2.24 -4.62,-2.51 -7.35,-2.23 0.05,2.04 0.1,4.09 0.15,6.14 0.96,0.96 1.93,1.92 2.89,2.89 -0.18,0.48 -0.55,1.43 -0.74,1.9 5.28,6.97 11.63,13.02 18.2,18.76 0.4,3.13 0.85,6.26 1.42,9.38 -1.55,-0.97 -3.05,-2 -4.54,-3.05 -1.82,1.41 -3.81,2.73 -6.24,2.48 -0.26,-3.73 -0.57,-7.59 -2.55,-10.87 -3.66,-6.4 -6.27,-13.3 -9.42,-19.94 0.39,10.43 3.17,20.58 3.96,30.98 -1.53,-0.83 -2.99,-1.77 -4.44,-2.71 -1.51,0.95 -2.96,2.09 -4.7,2.58 -1.46,-0.08 -2.7,-0.91 -4,-1.46 1.63,-9.71 6.2,-18.66 7.32,-28.48 -3.37,5.04 -5.73,10.69 -9.33,15.59 -1.49,2.25 -3.4,4.34 -4.17,6.98 -0.47,2.55 -0.21,5.15 -0.03,7.72 -1.67,-0.88 -3.27,-1.87 -4.86,-2.88 -1.86,1.43 -3.88,2.92 -6.36,2.68 1.19,-3.67 0.85,-8.3 4.15,-10.88 4.62,-4.16 9.74,-7.95 13.16,-13.24 -5.48,3.28 -10.29,7.57 -15.88,10.69 -2.49,1.68 -5.81,2.88 -6.84,5.99 -0.84,2.08 -1.34,4.28 -1.96,6.44 l -0.1,0.3 c -0.46,0.09 -1.39,0.26 -1.85,0.34 -1.63,0.23 -3.27,0.36 -4.91,0.48 1.9,-3.54 3.49,-7.26 5.63,-10.66 6.84,-3.61 14.03,-6.71 20.25,-11.42 4.51,-3.19 8.75,-6.76 12.63,-10.69 0.31,-5.59 0.5,-11.22 -0.64,-16.73 z" /><path
             style="fill:#66999a"
             inkscape:connector-curvature="0"
             id="path18995"
             d="m 306.1682,493.443 c 3.15,6.64 5.76,13.54 9.42,19.94 1.98,3.28 2.29,7.14 2.55,10.87 -1.08,-0.74 -2.13,-1.51 -3.18,-2.28 -1.59,0.86 -3.18,1.7 -4.83,2.45 -0.79,-10.4 -3.57,-20.55 -3.96,-30.98 z" /><path
             style="fill:#67999a"
             inkscape:connector-curvature="0"
             id="path18997"
             d="m 294.9782,509.943 c 3.6,-4.9 5.96,-10.55 9.33,-15.59 -1.12,9.82 -5.69,18.77 -7.32,28.48 -0.34,-0.15 -1.01,-0.46 -1.35,-0.62 -1.63,0.8 -3.22,1.66 -4.86,2.43 -0.18,-2.57 -0.44,-5.17 0.03,-7.72 0.77,-2.64 2.68,-4.73 4.17,-6.98 z" /><path
             style="fill:#66999a"
             inkscape:connector-curvature="0"
             id="path18999"
             d="m 310.0382,494.783 c 0.66,0.66 1.33,1.32 2,1.97 l -1.45,-0.1 c 6.18,6.92 14.18,11.76 21.69,17.05 2.61,1.71 1.9,5.27 2.57,7.92 -1.94,1.13 -3.87,2.28 -5.93,3.2 -0.57,-3.12 -1.02,-6.25 -1.42,-9.38 -6.57,-5.74 -12.92,-11.79 -18.2,-18.76 0.19,-0.47 0.56,-1.42 0.74,-1.9 z" /><path
             sodipodi:nodetypes="ccccccccc"
             style="fill:#336767"
             inkscape:connector-curvature="0"
             id="path19001"
             d="m 308.0287,493.91926 1.45,0.1 c 1.97,1.7 6.5095,6.13374 8.5895,7.70374 6.56,5.42 14.49,8.61 22.1,12.15 1.61,3.25 2.67,6.74 4.18,10.04 -2.25,-0.12 -4.49,-0.11 -6.73,0.03 -0.94,-0.75 -1.88,-1.52 -2.77,-2.32 -0.67,-2.65 0.04,-6.21 -2.57,-7.92 -7.51,-5.29 -18.0695,-12.86374 -24.2495,-19.78374 z" /><path
             style="fill:#65999a"
             inkscape:connector-curvature="0"
             id="path19003"
             d="m 280.9882,511.013 c 5.59,-3.12 10.4,-7.41 15.88,-10.69 -3.42,5.29 -8.54,9.08 -13.16,13.24 -3.3,2.58 -2.96,7.21 -4.15,10.88 -1.23,-0.88 -2.42,-1.79 -3.61,-2.7 -1.26,0.55 -2.52,1.1 -3.76,1.7 0.62,-2.16 1.12,-4.36 1.96,-6.44 1.03,-3.11 4.35,-4.31 6.84,-5.99 z" /><path
             style="fill:#fefefe"
             inkscape:connector-curvature="0"
             id="path19005"
             d="m 272.1882,523.443 c 1.24,-0.6 2.5,-1.15 3.76,-1.7 1.19,0.91 2.38,1.82 3.61,2.7 2.48,0.24 4.5,-1.25 6.36,-2.68 1.59,1.01 3.19,2 4.86,2.88 1.64,-0.77 3.23,-1.63 4.86,-2.43 0.34,0.16 1.01,0.47 1.35,0.62 1.3,0.55 2.54,1.38 4,1.46 1.74,-0.49 3.19,-1.63 4.7,-2.58 1.45,0.94 2.91,1.88 4.44,2.71 1.65,-0.75 3.24,-1.59 4.83,-2.45 1.05,0.77 2.1,1.54 3.18,2.28 2.43,0.25 4.42,-1.07 6.24,-2.48 1.49,1.05 2.99,2.08 4.54,3.05 2.06,-0.92 3.99,-2.07 5.93,-3.2 0.89,0.8 1.83,1.57 2.77,2.32 0.12,8.8 0.07,17.6 0.03,26.4 -0.89,-0.04 -2.67,-0.12 -3.57,-0.16 -2.06,-0.1 -4.13,-0.14 -6.2,-0.14 -3.39,0.01 -6.78,0.03 -10.17,-0.01 -2.82,-0.03 -5.64,-0.03 -8.46,0 -4.1,0.03 -8.2,0.02 -12.31,0 -2.49,-0.01 -4.98,-0.02 -7.48,0.01 -3.47,0.02 -6.94,0.03 -10.41,0.02 -2.4,-0.02 -4.79,-0.02 -7.19,-0.01 0.57,-8.76 0.22,-17.54 0.23,-26.31 l 0.1,-0.3 z" /><path
             style="fill:#2d5a5d"
             inkscape:connector-curvature="0"
             id="path19007"
             d="m 270.2382,524.083 c 0.46,-0.08 1.39,-0.25 1.85,-0.34 -0.01,8.77 0.34,17.55 -0.23,26.31 -0.57,6.02 0.73,11.97 1.19,17.95 0.34,3.21 0.45,6.48 1.36,9.61 5.39,3.26 11.47,5.23 16.93,8.39 l 1.02,1.36 c -4.21,-1.63 -8.38,-3.33 -12.57,-5.01 -3.06,-1.23 -6.13,-2.44 -9.18,-3.7 -0.46,-9.16 -1.38,-18.28 -1.66,-27.45 0.63,-1.34 1.29,-2.72 1.24,-4.24 0.13,-7.62 -0.15,-15.25 0.05,-22.88 z" /><path
             style="fill:#336666;fill-opacity:1"
             inkscape:connector-curvature="0"
             id="path19009"
             d="m 337.6182,523.943 c 2.24,-0.14 4.48,-0.15 6.73,-0.03 -1.76,0.26 -3.53,0.44 -5.3,0.63 l 0.14,1.09 c 0.15,8.22 -0.09,16.45 0.08,24.68 -1.72,0.25 -3.42,0.59 -5.14,0.86 l -0.05,-0.99 c 0.9,0.04 2.68,0.12 3.57,0.16 0.04,-8.8 0.09,-17.6 -0.03,-26.4 z" /><path
             style="fill:#67999a"
             inkscape:connector-curvature="0"
             id="path19011"
             d="m 271.8582,550.053 c 2.4,-0.01 4.79,-0.01 7.19,0.01 0.76,7.95 0.93,15.94 1.39,23.91 0.22,1.09 -0.1,2.6 1.04,3.28 5.22,3.97 11.27,6.76 16.26,11.06 -2.15,-0.72 -4.29,-1.46 -6.4,-2.31 -5.46,-3.16 -11.54,-5.13 -16.93,-8.39 -0.91,-3.13 -1.02,-6.4 -1.36,-9.61 -0.46,-5.98 -1.76,-11.93 -1.19,-17.95 z" /><path
             style="fill:#336667"
             inkscape:connector-curvature="0"
             id="path19013"
             d="m 279.0482,550.063 c 3.47,0.01 6.94,0 10.41,-0.02 0.73,8.86 -0.39,17.89 0.99,26.67 4.08,5.15 8.92,9.71 13.62,14.31 -1.81,-5.49 -5.39,-10.31 -6.58,-15.99 -0.43,-8.32 -0.23,-16.67 -0.55,-25 4.11,0.02 8.21,0.03 12.31,0 -0.18,7.3 -0.48,14.59 -0.54,21.89 0.15,6.65 -2.69,12.8 -3.7,19.28 3.7,-4.71 7.71,-9.26 10.77,-14.4 1.72,-8.78 1.12,-17.87 1.93,-26.77 3.39,0.04 6.78,0.02 10.17,0.01 -0.78,9.08 -0.55,18.2 -1.27,27.28 -5.12,3.63 -10.59,6.83 -15.27,11.05 7.51,-2.93 14.3,-7.35 21.59,-10.72 0.51,-8.82 1.08,-17.65 1.2,-26.48 1.72,-0.27 3.42,-0.61 5.14,-0.86 0.43,-0.05 1.29,-0.14 1.72,-0.19 -0.4,9.55 -1.52,19.06 -2.16,28.6 -2,0.82 -4,1.64 -6,2.46 -7.68,3.07 -15.33,6.21 -22.96,9.4 -2.11,0.7 -4.36,2.06 -6.6,1.13 -3.74,-1.16 -7.36,-2.69 -10.91,-4.35 l -1.02,-1.36 c 2.11,0.85 4.25,1.59 6.4,2.31 -4.99,-4.3 -11.04,-7.09 -16.26,-11.06 -1.14,-0.68 -0.82,-2.19 -1.04,-3.28 -0.46,-7.97 -0.63,-15.96 -1.39,-23.91 z" /><path
             style="fill:#66999a"
             inkscape:connector-curvature="0"
             id="path19015"
             d="m 289.4582,550.043 c 2.5,-0.03 4.99,-0.02 7.48,-0.01 0.32,8.33 0.12,16.68 0.55,25 1.19,5.68 4.77,10.5 6.58,15.99 -4.7,-4.6 -9.54,-9.16 -13.62,-14.31 -1.38,-8.78 -0.26,-17.81 -0.99,-26.67 z" /><path
             style="fill:#66999a"
             inkscape:connector-curvature="0"
             id="path19017"
             d="m 309.2482,550.033 c 2.82,-0.03 5.64,-0.03 8.46,0 -0.81,8.9 -0.21,17.99 -1.93,26.77 -3.06,5.14 -7.07,9.69 -10.77,14.4 1.01,-6.48 3.85,-12.63 3.7,-19.28 0.06,-7.3 0.36,-14.59 0.54,-21.89 z" /><path
             style="fill:#66999a"
             inkscape:connector-curvature="0"
             id="path19019"
             d="m 327.8782,550.043 c 2.07,0 4.14,0.04 6.2,0.14 l 0.05,0.99 c -0.12,8.83 -0.69,17.66 -1.2,26.48 -7.29,3.37 -14.08,7.79 -21.59,10.72 4.68,-4.22 10.15,-7.42 15.27,-11.05 0.72,-9.08 0.49,-18.2 1.27,-27.28 z" /><path
             style="fill:#336667"
             inkscape:connector-curvature="0"
             d="m 505.66284,369.11 c 0.88,-0.59 1.79,-1.14 2.72,-1.65 0.43,0.64 1.3,1.91 1.73,2.55 -0.53,0.94 -1.05,1.88 -1.57,2.83 2.19,0.01 4.39,0.04 6.59,0.08 0.62,1.66 0.68,4.13 2.73,4.67 2.65,0.71 5.42,0.04 8.1,-0.12 -2.25,2.22 -4.84,4.24 -8.06,4.72 -0.28,-0.04 -0.82,-0.12 -1.09,-0.16 -1.87,-2.24 -4.62,-2.51 -7.35,-2.23 0.05,2.04 0.1,4.09 0.15,6.14 0.96,0.96 1.93,1.92 2.89,2.89 -0.18,0.48 -0.55,1.43 -0.74,1.9 5.28,6.97 11.63,13.02 18.2,18.76 0.4,3.13 0.85,6.26 1.42,9.38 -1.55,-0.97 -3.05,-2 -4.54,-3.05 -1.82,1.41 -3.81,2.73 -6.24,2.48 -0.26,-3.73 -0.57,-7.59 -2.55,-10.87 -3.66,-6.4 -6.27,-13.3 -9.42,-19.94 0.39,10.43 3.17,20.58 3.96,30.98 -1.53,-0.83 -2.99,-1.77 -4.44,-2.71 -1.51,0.95 -2.96,2.09 -4.7,2.58 -1.46,-0.08 -2.7,-0.91 -4,-1.46 1.63,-9.71 6.2,-18.66 7.32,-28.48 -3.37,5.04 -5.73,10.69 -9.33,15.59 -1.49,2.25 -3.4,4.34 -4.17,6.98 -0.47,2.55 -0.21,5.15 -0.03,7.72 -1.67,-0.88 -3.27,-1.87 -4.86,-2.88 -1.86,1.43 -3.88,2.92 -6.36,2.68 1.19,-3.67 0.85,-8.3 4.15,-10.88 4.62,-4.16 9.74,-7.95 13.16,-13.24 -5.48,3.28 -10.29,7.57 -15.88,10.69 -2.49,1.68 -5.81,2.88 -6.84,5.99 -0.84,2.08 -1.34,4.28 -1.96,6.44 l -0.1,0.3 c -0.46,0.09 -1.39,0.26 -1.85,0.34 -1.63,0.23 -3.27,0.36 -4.91,0.48 1.9,-3.54 3.49,-7.26 5.63,-10.66 6.84,-3.61 14.03,-6.71 20.25,-11.42 4.51,-3.19 8.75,-6.76 12.63,-10.69 0.31,-5.59 0.5,-11.22 -0.64,-16.73 z"
             id="path19024" /><path
             inkscape:connector-curvature="0"
             d="m 509.46284,379.8 c 2.73,-0.28 5.48,-0.01 7.35,2.23 0.27,0.04 0.81,0.12 1.09,0.16 0.49,4.61 2.41,8.93 2.63,13.58 -2.08,-1.57 -4.06,-3.27 -6.03,-4.97 -0.67,-0.65 -1.34,-1.31 -2,-1.97 -0.96,-0.97 -1.93,-1.93 -2.89,-2.89 -0.05,-2.05 -0.1,-4.1 -0.15,-6.14 z"
             id="path19026"
             style="fill:#acacac;fill-opacity:1" /><path
             style="fill:#66999a"
             inkscape:connector-curvature="0"
             d="m 508.63284,387.49 c 3.15,6.64 5.76,13.54 9.42,19.94 1.98,3.28 2.29,7.14 2.55,10.87 -1.08,-0.74 -2.13,-1.51 -3.18,-2.28 -1.59,0.86 -3.18,1.7 -4.83,2.45 -0.79,-10.4 -3.57,-20.55 -3.96,-30.98 z"
             id="path19028" /><path
             style="fill:#67999a"
             inkscape:connector-curvature="0"
             d="m 497.44284,403.99 c 3.6,-4.9 5.96,-10.55 9.33,-15.59 -1.12,9.82 -5.69,18.77 -7.32,28.48 -0.34,-0.15 -1.01,-0.46 -1.35,-0.62 -1.63,0.8 -3.22,1.66 -4.86,2.43 -0.18,-2.57 -0.44,-5.17 0.03,-7.72 0.77,-2.64 2.68,-4.73 4.17,-6.98 z"
             id="path19030" /><path
             style="fill:#66999a"
             inkscape:connector-curvature="0"
             d="m 512.50284,388.83 c 0.66,0.66 1.33,1.32 2,1.97 l -1.45,-0.1 c 6.18,6.92 14.18,11.76 21.69,17.05 2.61,1.71 1.9,5.27 2.57,7.92 -1.94,1.13 -3.87,2.28 -5.93,3.2 -0.57,-3.12 -1.02,-6.25 -1.42,-9.38 -6.57,-5.74 -12.92,-11.79 -18.2,-18.76 0.19,-0.47 0.56,-1.42 0.74,-1.9 z"
             id="path19032" /><path
             style="fill:#336767"
             inkscape:connector-curvature="0"
             d="m 513.05284,390.7 1.45,0.1 c 1.97,1.7 3.95,3.4 6.03,4.97 6.56,5.42 14.49,8.61 22.1,12.15 1.61,3.25 2.67,6.74 4.18,10.04 -2.25,-0.12 -4.49,-0.11 -6.73,0.03 -0.94,-0.75 -1.88,-1.52 -2.77,-2.32 -0.67,-2.65 0.04,-6.21 -2.57,-7.92 -7.51,-5.29 -15.51,-10.13 -21.69,-17.05 z"
             id="path19034" /><path
             style="fill:#65999a"
             inkscape:connector-curvature="0"
             d="m 483.45284,405.06 c 5.59,-3.12 10.4,-7.41 15.88,-10.69 -3.42,5.29 -8.54,9.08 -13.16,13.24 -3.3,2.58 -2.96,7.21 -4.15,10.88 -1.23,-0.88 -2.42,-1.79 -3.61,-2.7 -1.26,0.55 -2.52,1.1 -3.76,1.7 0.62,-2.16 1.12,-4.36 1.96,-6.44 1.03,-3.11 4.35,-4.31 6.84,-5.99 z"
             id="path19036" /><path
             style="fill:#fefefe"
             inkscape:connector-curvature="0"
             d="m 474.65284,417.49 c 1.24,-0.6 2.5,-1.15 3.76,-1.7 1.19,0.91 2.38,1.82 3.61,2.7 2.48,0.24 4.5,-1.25 6.36,-2.68 1.59,1.01 3.19,2 4.86,2.88 1.64,-0.77 3.23,-1.63 4.86,-2.43 0.34,0.16 1.01,0.47 1.35,0.62 1.3,0.55 2.54,1.38 4,1.46 1.74,-0.49 3.19,-1.63 4.7,-2.58 1.45,0.94 2.91,1.88 4.44,2.71 1.65,-0.75 3.24,-1.59 4.83,-2.45 1.05,0.77 2.1,1.54 3.18,2.28 2.43,0.25 4.42,-1.07 6.24,-2.48 1.49,1.05 2.99,2.08 4.54,3.05 2.06,-0.92 3.99,-2.07 5.93,-3.2 0.89,0.8 1.83,1.57 2.77,2.32 0.12,8.8 0.07,17.6 0.03,26.4 -0.89,-0.04 -2.67,-0.12 -3.57,-0.16 -2.06,-0.1 -4.13,-0.14 -6.2,-0.14 -3.39,0.01 -6.78,0.03 -10.17,-0.01 -2.82,-0.03 -5.64,-0.03 -8.46,0 -4.1,0.03 -8.2,0.02 -12.31,0 -2.49,-0.01 -4.98,-0.02 -7.48,0.01 -3.47,0.02 -6.94,0.03 -10.41,0.02 -2.4,-0.02 -4.79,-0.02 -7.19,-0.01 0.57,-8.76 0.22,-17.54 0.23,-26.31 l 0.1,-0.3 z"
             id="path19038" /><path
             style="fill:#2d5a5d"
             inkscape:connector-curvature="0"
             d="m 472.70284,418.13 c 0.46,-0.08 1.39,-0.25 1.85,-0.34 -0.01,8.77 0.34,17.55 -0.23,26.31 -0.57,6.02 0.73,11.97 1.19,17.95 0.34,3.21 0.45,6.48 1.36,9.61 5.39,3.26 11.47,5.23 16.93,8.39 l 1.02,1.36 c -4.21,-1.63 -8.38,-3.33 -12.57,-5.01 -3.06,-1.23 -6.13,-2.44 -9.18,-3.7 -0.46,-9.16 -1.38,-18.28 -1.66,-27.45 0.63,-1.34 1.29,-2.72 1.24,-4.24 0.13,-7.62 -0.15,-15.25 0.05,-22.88 z"
             id="path19040" /><path
             style="fill:#023234"
             inkscape:connector-curvature="0"
             d="m 540.08284,417.99 c 2.24,-0.14 4.48,-0.15 6.73,-0.03 -1.76,0.26 -3.53,0.44 -5.3,0.63 l 0.14,1.09 c 0.15,8.22 -0.09,16.45 0.08,24.68 -1.72,0.25 -3.42,0.59 -5.14,0.86 l -0.05,-0.99 c 0.9,0.04 2.68,0.12 3.57,0.16 0.04,-8.8 0.09,-17.6 -0.03,-26.4 z"
             id="path19042" /><path
             style="fill:#67999a"
             inkscape:connector-curvature="0"
             d="m 474.32284,444.1 c 2.4,-0.01 4.79,-0.01 7.19,0.01 0.76,7.95 0.93,15.94 1.39,23.91 0.22,1.09 -0.1,2.6 1.04,3.28 5.22,3.97 11.27,6.76 16.26,11.06 -2.15,-0.72 -4.29,-1.46 -6.4,-2.31 -5.46,-3.16 -11.54,-5.13 -16.93,-8.39 -0.91,-3.13 -1.02,-6.4 -1.36,-9.61 -0.46,-5.98 -1.76,-11.93 -1.19,-17.95 z"
             id="path19044" /><path
             style="fill:#336667"
             inkscape:connector-curvature="0"
             d="m 481.51284,444.11 c 3.47,0.01 6.94,0 10.41,-0.02 0.73,8.86 -0.39,17.89 0.99,26.67 4.08,5.15 8.92,9.71 13.62,14.31 -1.81,-5.49 -5.39,-10.31 -6.58,-15.99 -0.43,-8.32 -0.23,-16.67 -0.55,-25 4.11,0.02 8.21,0.03 12.31,0 -0.18,7.3 -0.48,14.59 -0.54,21.89 0.15,6.65 -2.69,12.8 -3.7,19.28 3.7,-4.71 7.71,-9.26 10.77,-14.4 1.72,-8.78 1.12,-17.87 1.93,-26.77 3.39,0.04 6.78,0.02 10.17,0.01 -0.78,9.08 -0.55,18.2 -1.27,27.28 -5.12,3.63 -10.59,6.83 -15.27,11.05 7.51,-2.93 14.3,-7.35 21.59,-10.72 0.51,-8.82 1.08,-17.65 1.2,-26.48 1.72,-0.27 3.42,-0.61 5.14,-0.86 0.43,-0.05 1.29,-0.14 1.72,-0.19 -0.4,9.55 -1.52,19.06 -2.16,28.6 -2,0.82 -4,1.64 -6,2.46 -7.68,3.07 -15.33,6.21 -22.96,9.4 -2.11,0.7 -4.36,2.06 -6.6,1.13 -3.74,-1.16 -7.36,-2.69 -10.91,-4.35 l -1.02,-1.36 c 2.11,0.85 4.25,1.59 6.4,2.31 -4.99,-4.3 -11.04,-7.09 -16.26,-11.06 -1.14,-0.68 -0.82,-2.19 -1.04,-3.28 -0.46,-7.97 -0.63,-15.96 -1.39,-23.91 z"
             id="path19046" /><path
             style="fill:#66999a"
             inkscape:connector-curvature="0"
             d="m 491.92284,444.09 c 2.5,-0.03 4.99,-0.02 7.48,-0.01 0.32,8.33 0.12,16.68 0.55,25 1.19,5.68 4.77,10.5 6.58,15.99 -4.7,-4.6 -9.54,-9.16 -13.62,-14.31 -1.38,-8.78 -0.26,-17.81 -0.99,-26.67 z"
             id="path19048" /><path
             style="fill:#66999a"
             inkscape:connector-curvature="0"
             d="m 511.71284,444.08 c 2.82,-0.03 5.64,-0.03 8.46,0 -0.81,8.9 -0.21,17.99 -1.93,26.77 -3.06,5.14 -7.07,9.69 -10.77,14.4 1.01,-6.48 3.85,-12.63 3.7,-19.28 0.06,-7.3 0.36,-14.59 0.54,-21.89 z"
             id="path19050" /><path
             style="fill:#66999a"
             inkscape:connector-curvature="0"
             d="m 530.34284,444.09 c 2.07,0 4.14,0.04 6.2,0.14 l 0.05,0.99 c -0.12,8.83 -0.69,17.66 -1.2,26.48 -7.29,3.37 -14.08,7.79 -21.59,10.72 4.68,-4.22 10.15,-7.42 15.27,-11.05 0.72,-9.08 0.49,-18.2 1.27,-27.28 z"
             id="path19052" /><path
             style="fill:#336667"
             inkscape:connector-curvature="0"
             id="path19054"
             d="m 505.66284,369.11 c 0.88,-0.59 1.79,-1.14 2.72,-1.65 0.43,0.64 1.3,1.91 1.73,2.55 -0.53,0.94 -1.05,1.88 -1.57,2.83 2.19,0.01 4.39,0.04 6.59,0.08 0.62,1.66 0.68,4.13 2.73,4.67 2.65,0.71 5.42,0.04 8.1,-0.12 -2.25,2.22 -4.84,4.24 -8.06,4.72 -0.28,-0.04 -0.82,-0.12 -1.09,-0.16 -1.87,-2.24 -4.62,-2.51 -7.35,-2.23 0.05,2.04 0.1,4.09 0.15,6.14 0.96,0.96 1.93,1.92 2.89,2.89 -0.18,0.48 -0.55,1.43 -0.74,1.9 5.28,6.97 11.63,13.02 18.2,18.76 0.4,3.13 0.85,6.26 1.42,9.38 -1.55,-0.97 -3.05,-2 -4.54,-3.05 -1.82,1.41 -3.81,2.73 -6.24,2.48 -0.26,-3.73 -0.57,-7.59 -2.55,-10.87 -3.66,-6.4 -6.27,-13.3 -9.42,-19.94 0.39,10.43 3.17,20.58 3.96,30.98 -1.53,-0.83 -2.99,-1.77 -4.44,-2.71 -1.51,0.95 -2.96,2.09 -4.7,2.58 -1.46,-0.08 -2.7,-0.91 -4,-1.46 1.63,-9.71 6.2,-18.66 7.32,-28.48 -3.37,5.04 -5.73,10.69 -9.33,15.59 -1.49,2.25 -3.4,4.34 -4.17,6.98 -0.47,2.55 -0.21,5.15 -0.03,7.72 -1.67,-0.88 -3.27,-1.87 -4.86,-2.88 -1.86,1.43 -3.88,2.92 -6.36,2.68 1.19,-3.67 0.85,-8.3 4.15,-10.88 4.62,-4.16 9.74,-7.95 13.16,-13.24 -5.48,3.28 -10.29,7.57 -15.88,10.69 -2.49,1.68 -5.81,2.88 -6.84,5.99 -0.84,2.08 -1.34,4.28 -1.96,6.44 l -0.1,0.3 c -0.46,0.09 -1.39,0.26 -1.85,0.34 -1.63,0.23 -3.27,0.36 -4.91,0.48 1.9,-3.54 3.49,-7.26 5.63,-10.66 6.84,-3.61 14.03,-6.71 20.25,-11.42 4.51,-3.19 8.75,-6.76 12.63,-10.69 0.31,-5.59 0.5,-11.22 -0.64,-16.73 z" /><path
             inkscape:connector-curvature="0"
             style="fill:#acacac;fill-opacity:1"
             id="path19056"
             d="m 509.46284,379.8 c 2.73,-0.28 5.48,-0.01 7.35,2.23 0.27,0.04 0.81,0.12 1.09,0.16 0.49,4.61 2.41,8.93 2.63,13.58 -2.08,-1.57 -4.06,-3.27 -6.03,-4.97 -0.67,-0.65 -1.34,-1.31 -2,-1.97 -0.96,-0.97 -1.93,-1.93 -2.89,-2.89 -0.05,-2.05 -0.1,-4.1 -0.15,-6.14 z" /><path
             style="fill:#66999a"
             inkscape:connector-curvature="0"
             id="path19058"
             d="m 508.63284,387.49 c 3.15,6.64 5.76,13.54 9.42,19.94 1.98,3.28 2.29,7.14 2.55,10.87 -1.08,-0.74 -2.13,-1.51 -3.18,-2.28 -1.59,0.86 -3.18,1.7 -4.83,2.45 -0.79,-10.4 -3.57,-20.55 -3.96,-30.98 z" /><path
             style="fill:#67999a"
             inkscape:connector-curvature="0"
             id="path19060"
             d="m 497.44284,403.99 c 3.6,-4.9 5.96,-10.55 9.33,-15.59 -1.12,9.82 -5.69,18.77 -7.32,28.48 -0.34,-0.15 -1.01,-0.46 -1.35,-0.62 -1.63,0.8 -3.22,1.66 -4.86,2.43 -0.18,-2.57 -0.44,-5.17 0.03,-7.72 0.77,-2.64 2.68,-4.73 4.17,-6.98 z" /><path
             style="fill:#66999a"
             inkscape:connector-curvature="0"
             id="path19062"
             d="m 512.50284,388.83 c 0.66,0.66 1.33,1.32 2,1.97 l -1.45,-0.1 c 6.18,6.92 14.18,11.76 21.69,17.05 2.61,1.71 1.9,5.27 2.57,7.92 -1.94,1.13 -3.87,2.28 -5.93,3.2 -0.57,-3.12 -1.02,-6.25 -1.42,-9.38 -6.57,-5.74 -12.92,-11.79 -18.2,-18.76 0.19,-0.47 0.56,-1.42 0.74,-1.9 z" /><path
             sodipodi:nodetypes="ccccccccc"
             style="fill:#336767"
             inkscape:connector-curvature="0"
             id="path19064"
             d="m 508.89365,386.94111 1.45,0.1 c 1.97,1.7 8.10919,7.15889 10.18919,8.72889 6.56,5.42 14.49,8.61 22.1,12.15 1.61,3.25 2.67,6.74 4.18,10.04 -2.25,-0.12 -4.49,-0.11 -6.73,0.03 -0.94,-0.75 -1.88,-1.52 -2.77,-2.32 -0.67,-2.65 0.04,-6.21 -2.57,-7.92 -7.51,-5.29 -19.66919,-13.88889 -25.84919,-20.80889 z" /><path
             style="fill:#65999a"
             inkscape:connector-curvature="0"
             id="path19066"
             d="m 483.45284,405.06 c 5.59,-3.12 10.4,-7.41 15.88,-10.69 -3.42,5.29 -8.54,9.08 -13.16,13.24 -3.3,2.58 -2.96,7.21 -4.15,10.88 -1.23,-0.88 -2.42,-1.79 -3.61,-2.7 -1.26,0.55 -2.52,1.1 -3.76,1.7 0.62,-2.16 1.12,-4.36 1.96,-6.44 1.03,-3.11 4.35,-4.31 6.84,-5.99 z" /><path
             style="fill:#fefefe"
             inkscape:connector-curvature="0"
             id="path19068"
             d="m 474.65284,417.49 c 1.24,-0.6 2.5,-1.15 3.76,-1.7 1.19,0.91 2.38,1.82 3.61,2.7 2.48,0.24 4.5,-1.25 6.36,-2.68 1.59,1.01 3.19,2 4.86,2.88 1.64,-0.77 3.23,-1.63 4.86,-2.43 0.34,0.16 1.01,0.47 1.35,0.62 1.3,0.55 2.54,1.38 4,1.46 1.74,-0.49 3.19,-1.63 4.7,-2.58 1.45,0.94 2.91,1.88 4.44,2.71 1.65,-0.75 3.24,-1.59 4.83,-2.45 1.05,0.77 2.1,1.54 3.18,2.28 2.43,0.25 4.42,-1.07 6.24,-2.48 1.49,1.05 2.99,2.08 4.54,3.05 2.06,-0.92 3.99,-2.07 5.93,-3.2 0.89,0.8 1.83,1.57 2.77,2.32 0.12,8.8 0.07,17.6 0.03,26.4 -0.89,-0.04 -2.67,-0.12 -3.57,-0.16 -2.06,-0.1 -4.13,-0.14 -6.2,-0.14 -3.39,0.01 -6.78,0.03 -10.17,-0.01 -2.82,-0.03 -5.64,-0.03 -8.46,0 -4.1,0.03 -8.2,0.02 -12.31,0 -2.49,-0.01 -4.98,-0.02 -7.48,0.01 -3.47,0.02 -6.94,0.03 -10.41,0.02 -2.4,-0.02 -4.79,-0.02 -7.19,-0.01 0.57,-8.76 0.22,-17.54 0.23,-26.31 l 0.1,-0.3 z" /><path
             style="fill:#2d5a5d"
             inkscape:connector-curvature="0"
             id="path19070"
             d="m 472.70284,418.13 c 0.46,-0.08 1.39,-0.25 1.85,-0.34 -0.01,8.77 0.34,17.55 -0.23,26.31 -0.57,6.02 0.73,11.97 1.19,17.95 0.34,3.21 0.45,6.48 1.36,9.61 5.39,3.26 11.47,5.23 16.93,8.39 l 1.02,1.36 c -4.21,-1.63 -8.38,-3.33 -12.57,-5.01 -3.06,-1.23 -6.13,-2.44 -9.18,-3.7 -0.46,-9.16 -1.38,-18.28 -1.66,-27.45 0.63,-1.34 1.29,-2.72 1.24,-4.24 0.13,-7.62 -0.15,-15.25 0.05,-22.88 z" /><path
             style="fill:#336666;fill-opacity:1"
             inkscape:connector-curvature="0"
             id="path19072"
             d="m 540.08284,417.99 c 2.24,-0.14 4.48,-0.15 6.73,-0.03 -1.76,0.26 -3.53,0.44 -5.3,0.63 l 0.14,1.09 c 0.15,8.22 -0.09,16.45 0.08,24.68 -1.72,0.25 -3.42,0.59 -5.14,0.86 l -0.05,-0.99 c 0.9,0.04 2.68,0.12 3.57,0.16 0.04,-8.8 0.09,-17.6 -0.03,-26.4 z" /><path
             style="fill:#67999a"
             inkscape:connector-curvature="0"
             id="path19074"
             d="m 474.32284,444.1 c 2.4,-0.01 4.79,-0.01 7.19,0.01 0.76,7.95 0.93,15.94 1.39,23.91 0.22,1.09 -0.1,2.6 1.04,3.28 5.22,3.97 11.27,6.76 16.26,11.06 -2.15,-0.72 -4.29,-1.46 -6.4,-2.31 -5.46,-3.16 -11.54,-5.13 -16.93,-8.39 -0.91,-3.13 -1.02,-6.4 -1.36,-9.61 -0.46,-5.98 -1.76,-11.93 -1.19,-17.95 z" /><path
             style="fill:#336667"
             inkscape:connector-curvature="0"
             id="path19076"
             d="m 481.51284,444.11 c 3.47,0.01 6.94,0 10.41,-0.02 0.73,8.86 -0.39,17.89 0.99,26.67 4.08,5.15 8.92,9.71 13.62,14.31 -1.81,-5.49 -5.39,-10.31 -6.58,-15.99 -0.43,-8.32 -0.23,-16.67 -0.55,-25 4.11,0.02 8.21,0.03 12.31,0 -0.18,7.3 -0.48,14.59 -0.54,21.89 0.15,6.65 -2.69,12.8 -3.7,19.28 3.7,-4.71 7.71,-9.26 10.77,-14.4 1.72,-8.78 1.12,-17.87 1.93,-26.77 3.39,0.04 6.78,0.02 10.17,0.01 -0.78,9.08 -0.55,18.2 -1.27,27.28 -5.12,3.63 -10.59,6.83 -15.27,11.05 7.51,-2.93 14.3,-7.35 21.59,-10.72 0.51,-8.82 1.08,-17.65 1.2,-26.48 1.72,-0.27 3.42,-0.61 5.14,-0.86 0.43,-0.05 1.29,-0.14 1.72,-0.19 -0.4,9.55 -1.52,19.06 -2.16,28.6 -2,0.82 -4,1.64 -6,2.46 -7.68,3.07 -15.33,6.21 -22.96,9.4 -2.11,0.7 -4.36,2.06 -6.6,1.13 -3.74,-1.16 -7.36,-2.69 -10.91,-4.35 l -1.02,-1.36 c 2.11,0.85 4.25,1.59 6.4,2.31 -4.99,-4.3 -11.04,-7.09 -16.26,-11.06 -1.14,-0.68 -0.82,-2.19 -1.04,-3.28 -0.46,-7.97 -0.63,-15.96 -1.39,-23.91 z" /><path
             style="fill:#66999a"
             inkscape:connector-curvature="0"
             id="path19078"
             d="m 491.92284,444.09 c 2.5,-0.03 4.99,-0.02 7.48,-0.01 0.32,8.33 0.12,16.68 0.55,25 1.19,5.68 4.77,10.5 6.58,15.99 -4.7,-4.6 -9.54,-9.16 -13.62,-14.31 -1.38,-8.78 -0.26,-17.81 -0.99,-26.67 z" /><path
             style="fill:#66999a"
             inkscape:connector-curvature="0"
             id="path19080"
             d="m 511.71284,444.08 c 2.82,-0.03 5.64,-0.03 8.46,0 -0.81,8.9 -0.21,17.99 -1.93,26.77 -3.06,5.14 -7.07,9.69 -10.77,14.4 1.01,-6.48 3.85,-12.63 3.7,-19.28 0.06,-7.3 0.36,-14.59 0.54,-21.89 z" /><path
             style="fill:#66999a"
             inkscape:connector-curvature="0"
             id="path19082"
             d="m 530.34284,444.09 c 2.07,0 4.14,0.04 6.2,0.14 l 0.05,0.99 c -0.12,8.83 -0.69,17.66 -1.2,26.48 -7.29,3.37 -14.08,7.79 -21.59,10.72 4.68,-4.22 10.15,-7.42 15.27,-11.05 0.72,-9.08 0.49,-18.2 1.27,-27.28 z" /></g></g></g></g></svg>